<?xml version="1.0" standalone="no"?>
<!DOCTYPE svg PUBLIC "-//W3C//DTD SVG 20010904//EN"
 "http://www.w3.org/TR/2001/REC-SVG-20010904/DTD/svg10.dtd">
<svg version="1.0" xmlns="http://www.w3.org/2000/svg"
 width="373.000000pt" height="373.000000pt" viewBox="0 0 373.000000 373.000000"
 preserveAspectRatio="xMidYMid meet">
<metadata>
Created by potrace 1.14, written by Peter Selinger 2001-2017
</metadata>
<g transform="translate(0.000000,373.000000) scale(0.100000,-0.100000)"
fill="#000000" stroke="none">
<path d="M1790 3575 c0 -6 -40 -10 -100 -10 -55 0 -100 -4 -100 -8 0 -5 -10
-5 -21 -2 -16 6 -20 4 -14 -6 6 -11 5 -11 -5 -2 -8 7 -19 9 -29 4 -9 -5 -24
-7 -33 -6 -10 2 -18 0 -18 -5 0 -4 -11 -6 -25 -5 -14 2 -25 0 -25 -5 0 -5 -8
-7 -17 -5 -10 1 -33 -3 -50 -11 -18 -7 -33 -10 -33 -7 0 3 -6 0 -13 -6 -8 -6
-17 -8 -20 -4 -4 3 -7 2 -7 -3 0 -5 -8 -10 -17 -11 -43 -3 -61 -8 -57 -14 2
-4 -11 -10 -29 -14 -42 -10 -39 -9 -63 -23 -12 -6 -24 -8 -28 -5 -3 3 -6 1 -6
-6 0 -7 -4 -9 -10 -6 -5 3 -10 1 -10 -4 0 -6 -3 -11 -7 -10 -16 2 -53 -14 -53
-23 0 -5 -4 -6 -10 -3 -5 3 -10 1 -10 -4 0 -6 -3 -10 -7 -9 -12 2 -46 -14 -61
-29 -7 -7 -20 -13 -28 -13 -8 0 -14 -5 -14 -11 0 -5 -4 -8 -9 -5 -5 4 -11 3
-13 -2 -1 -4 -27 -22 -55 -41 -29 -18 -53 -38 -53 -44 0 -6 -3 -8 -6 -4 -7 6
-15 0 -77 -55 -22 -20 -46 -34 -51 -31 -6 3 -8 3 -4 -1 8 -10 -56 -76 -73 -76
-7 0 -9 -3 -6 -7 9 -9 -13 -34 -24 -27 -5 3 -9 -2 -9 -10 0 -8 -18 -33 -41
-56 -22 -22 -38 -40 -34 -40 6 0 1 -6 -40 -53 -14 -16 -23 -33 -20 -38 4 -5
-1 -9 -10 -9 -9 0 -14 -4 -11 -9 3 -5 -1 -14 -9 -21 -8 -7 -15 -19 -15 -27 0
-8 -5 -11 -12 -7 -7 4 -10 4 -6 -1 7 -7 -18 -63 -34 -75 -3 -3 -8 -14 -10 -25
-1 -11 -9 -26 -16 -33 -6 -7 -12 -22 -12 -33 0 -10 -4 -19 -8 -19 -9 0 -58
-139 -54 -152 1 -5 -2 -8 -7 -8 -5 0 -8 -11 -7 -25 2 -13 0 -22 -4 -20 -7 4
-37 -133 -32 -147 1 -5 -1 -8 -5 -8 -7 0 -13 -40 -16 -107 -1 -13 -3 -23 -7
-23 -3 0 -5 -22 -6 -50 0 -32 3 -47 10 -43 6 4 5 -1 -2 -10 -8 -9 -11 -21 -7
-27 3 -5 1 -10 -5 -10 -6 0 -8 -5 -4 -12 4 -7 7 -37 7 -67 0 -31 5 -59 11 -63
8 -6 8 -8 -1 -8 -12 0 -12 -17 0 -37 5 -8 3 -13 -5 -13 -9 0 -9 -3 -2 -8 6 -4
10 -19 10 -34 -1 -16 1 -28 4 -28 3 0 6 -8 6 -17 1 -10 4 -36 9 -58 4 -22 8
-48 8 -57 1 -10 4 -18 7 -18 5 0 9 -18 12 -57 1 -7 5 -13 10 -13 4 0 8 -10 8
-23 0 -13 4 -27 10 -33 5 -5 11 -22 12 -37 1 -15 5 -27 8 -27 3 0 11 -9 18
-21 8 -12 9 -18 4 -15 -6 3 -1 -13 11 -36 11 -24 20 -46 19 -50 -1 -5 2 -8 6
-8 4 0 14 -16 21 -35 7 -19 17 -35 22 -35 5 0 9 -9 9 -19 0 -11 4 -21 9 -23 5
-1 11 -10 13 -18 3 -16 14 -31 40 -61 10 -10 15 -19 10 -19 -4 0 2 -7 12 -15
11 -8 16 -15 11 -15 -5 0 4 -14 20 -30 16 -17 26 -30 22 -30 -4 0 9 -16 28
-37 19 -20 31 -41 28 -47 -3 -6 -3 -8 1 -4 7 6 20 -5 64 -57 5 -5 22 -22 38
-37 16 -15 34 -33 41 -40 16 -18 41 -38 47 -38 2 0 20 -15 40 -32 46 -43 64
-58 70 -58 3 0 14 -7 23 -15 10 -8 21 -15 26 -15 4 0 16 -8 27 -17 11 -10 29
-26 40 -36 11 -9 22 -17 25 -16 12 1 65 -26 65 -34 0 -5 4 -6 9 -2 6 3 14 -3
20 -12 6 -10 11 -14 11 -10 0 4 10 2 23 -5 12 -7 24 -13 27 -13 3 0 26 -11 52
-24 27 -12 55 -24 63 -25 8 -1 18 -5 21 -9 4 -4 16 -7 26 -7 10 0 18 -4 18 -8
0 -4 11 -9 26 -10 14 -1 34 -6 44 -12 10 -5 29 -10 43 -10 13 0 27 -3 31 -7 7
-7 31 -11 84 -15 12 -1 22 -5 22 -9 0 -4 16 -6 35 -5 19 1 35 -3 35 -9 0 -5 4
-4 9 4 5 8 11 9 15 3 3 -6 14 -9 24 -7 9 1 23 -2 30 -8 8 -6 12 -6 12 2 0 8 5
9 18 2 10 -6 24 -6 32 -1 8 5 19 6 25 2 14 -10 255 -9 255 1 0 4 9 3 19 -3 11
-5 22 -6 25 -1 3 4 16 8 28 7 13 -1 26 3 30 9 5 6 8 5 8 -3 0 -8 5 -10 12 -5
7 4 26 8 43 9 40 3 105 25 105 36 0 4 7 8 15 8 8 0 15 5 15 11 0 5 5 7 10 4 6
-3 13 1 16 9 3 9 10 16 16 16 5 0 6 -6 2 -12 -4 -7 3 -3 15 10 12 12 26 22 32
22 6 0 17 7 26 15 8 8 19 12 25 9 7 -4 8 -2 4 4 -4 7 -2 12 4 12 7 0 8 6 1 18
-5 9 -9 19 -9 22 -1 9 -14 44 -23 65 -7 14 -18 20 -37 19 -15 -1 -27 -3 -27
-4 0 -3 -141 -13 -202 -14 -34 0 -59 -5 -56 -10 4 -5 0 -6 -7 -1 -21 13 -120
14 -113 1 5 -8 3 -8 -8 0 -22 17 -59 24 -59 11 0 -8 -3 -8 -8 -2 -4 6 -17 10
-29 9 -13 -1 -23 2 -23 6 0 4 -12 6 -27 5 -16 -1 -41 2 -58 7 -16 5 -41 11
-55 13 -34 6 -65 13 -67 15 -2 2 -6 3 -10 4 -5 1 -14 5 -20 9 -7 5 -17 6 -22
2 -5 -3 -12 -1 -16 5 -4 6 -11 8 -16 5 -5 -4 -9 -1 -9 5 0 6 -4 9 -9 6 -5 -4
-11 -2 -13 3 -1 5 -14 11 -28 13 -14 1 -31 9 -39 16 -7 7 -26 16 -42 19 -16 3
-29 9 -29 12 0 9 -77 44 -85 39 -4 -2 -11 5 -16 15 -6 9 -17 17 -24 17 -8 0
-15 5 -15 10 0 6 -6 10 -13 10 -7 0 -23 9 -35 20 -12 11 -26 20 -31 20 -5 0
-16 9 -24 20 -8 11 -16 18 -18 15 -3 -2 -31 21 -63 51 -32 29 -61 54 -63 54
-6 0 -33 28 -33 34 0 3 -18 23 -39 44 -22 20 -55 60 -74 89 -19 28 -38 49 -41
46 -3 -4 -6 -1 -6 5 0 15 -62 115 -77 125 -7 4 -10 14 -7 22 4 8 1 15 -4 15
-6 0 -16 16 -23 35 -7 19 -17 35 -22 35 -5 0 -7 7 -3 15 3 8 2 15 -2 15 -4 0
-15 16 -24 35 -8 19 -11 32 -6 29 6 -4 2 5 -7 19 -9 15 -14 30 -11 36 3 5 -1
11 -9 15 -8 3 -12 12 -9 21 3 8 2 15 -2 15 -5 0 -10 15 -11 32 -2 18 -7 34
-12 36 -5 2 -7 12 -4 22 3 13 0 20 -8 20 -10 0 -10 3 -1 12 6 6 8 17 3 27 -5
9 -7 24 -6 34 2 9 0 17 -4 17 -9 0 -14 62 -14 195 1 142 6 215 16 215 5 0 6 3
3 8 -2 4 0 27 5 52 6 25 10 53 10 63 0 9 4 17 9 17 4 0 7 8 5 18 -1 9 0 22 4
27 6 11 12 32 13 53 1 6 5 12 10 12 4 0 8 10 8 23 0 13 5 28 12 35 7 7 9 12 5
12 -3 0 4 20 18 45 13 25 18 43 12 39 -7 -3 -4 1 5 9 10 8 15 17 11 20 -3 4 2
9 11 13 9 3 14 10 11 15 -7 10 15 51 33 62 7 5 10 12 7 18 -4 5 -1 9 6 9 7 0
10 3 6 6 -5 5 10 27 41 59 6 8 12 18 12 24 0 6 5 11 10 11 6 0 10 7 10 16 0 8
5 12 10 9 6 -3 10 -1 10 5 0 6 20 31 44 56 25 24 42 44 38 44 -3 0 8 10 25 23
17 12 45 37 62 56 17 18 31 30 31 26 0 -3 14 7 31 24 17 17 35 29 40 25 5 -3
9 1 9 8 0 7 18 22 40 32 22 11 40 23 40 28 0 5 4 7 9 4 5 -4 11 -1 13 4 3 10
21 16 51 19 5 1 6 5 3 10 -7 11 22 23 35 15 5 -3 9 0 9 6 0 6 11 15 25 20 14
5 43 18 66 29 23 11 46 18 50 15 5 -3 9 -1 9 4 0 9 47 27 63 24 4 -1 7 3 7 9
0 5 4 8 9 5 5 -3 26 1 46 10 20 8 40 13 43 10 3 -3 10 -1 17 4 7 5 27 12 46
14 19 3 34 5 34 6 0 2 32 7 97 13 26 3 52 8 58 12 6 4 17 2 25 -5 7 -6 16 -7
18 -2 5 6 152 9 152 2 0 -2 36 -9 63 -12 12 -1 22 -6 22 -11 0 -5 6 -7 14 -4
8 3 17 3 21 -1 4 -4 11 -8 16 -8 5 -1 10 -2 12 -3 1 -2 13 -4 26 -7 14 -2 29
-8 35 -13 6 -4 32 -14 59 -22 26 -7 47 -17 47 -21 0 -4 5 -8 11 -8 6 0 33 -11
59 -24 27 -13 51 -22 54 -19 3 4 6 1 6 -5 0 -7 7 -12 15 -12 8 0 15 -4 15 -10
0 -5 9 -10 21 -10 11 0 18 -4 15 -9 -3 -5 8 -14 24 -21 16 -7 27 -16 24 -21
-3 -5 2 -6 10 -3 9 4 18 -1 22 -10 3 -9 11 -16 18 -16 6 0 30 -18 54 -40 24
-22 45 -40 48 -40 10 0 144 -138 144 -149 0 -6 6 -11 13 -11 8 0 19 -11 25
-25 6 -14 16 -25 22 -25 6 0 8 -5 5 -10 -3 -6 1 -13 9 -16 9 -3 16 -10 16 -15
0 -6 9 -19 20 -31 10 -12 17 -25 14 -30 -3 -4 2 -8 10 -8 9 0 16 -7 16 -16 0
-8 7 -22 15 -31 8 -8 13 -19 10 -24 -4 -5 -2 -9 4 -9 5 0 25 -30 43 -67 18
-38 36 -69 40 -71 5 -2 8 -11 8 -21 0 -9 6 -25 14 -36 7 -11 12 -28 10 -37 -1
-10 2 -18 7 -18 5 0 9 -9 9 -19 0 -11 5 -23 10 -26 6 -3 10 -17 10 -31 0 -13
4 -24 9 -24 4 0 7 -11 6 -25 -2 -14 2 -25 8 -25 5 0 8 -3 4 -6 -3 -3 -1 -18 5
-33 6 -14 10 -38 9 -53 -1 -17 4 -28 11 -28 9 0 8 -3 -2 -10 -8 -5 -10 -10 -5
-10 10 0 14 -20 20 -110 1 -19 3 -35 5 -35 1 0 3 -10 4 -23 2 -12 -2 -22 -8
-22 -8 0 -8 -3 0 -8 13 -9 14 -163 1 -155 -5 3 -4 -3 1 -13 13 -24 13 -36 0
-51 -7 -9 -7 -13 1 -13 7 0 9 -5 5 -12 -4 -6 -8 -21 -9 -32 -10 -84 -18 -133
-26 -153 -5 -13 -6 -23 -4 -23 2 0 0 -12 -6 -26 -12 -34 -3 -63 19 -59 9 1 25
-2 36 -7 13 -7 16 -7 11 2 -4 7 7 4 25 -5 21 -11 29 -12 24 -4 -5 8 -2 11 8 6
9 -3 26 2 39 10 12 9 20 12 16 7 -3 -6 25 5 64 25 47 24 69 40 69 53 0 10 4
18 8 18 4 0 8 8 9 18 1 9 5 31 8 47 4 17 7 40 8 53 1 12 6 22 12 22 5 0 3 5
-5 10 -8 5 -10 10 -4 10 7 0 11 18 10 46 -1 25 1 47 4 49 3 2 5 39 5 82 0 43
5 81 10 85 7 5 7 8 0 8 -5 0 -9 18 -9 40 1 22 -2 43 -8 46 -5 3 -5 11 0 17 7
10 9 32 2 40 -7 9 -6 37 2 37 7 0 6 5 -1 14 -6 7 -12 36 -13 63 -2 28 -6 49
-9 47 -4 -2 -9 13 -12 34 -6 43 -10 63 -18 77 -3 6 -5 17 -4 25 0 8 -6 20 -15
27 -12 10 -12 12 -1 13 11 0 10 5 -3 25 -9 13 -16 29 -16 34 0 6 -11 35 -25
65 -14 30 -25 60 -25 65 0 6 -5 11 -10 11 -6 0 -9 3 -8 8 4 14 -13 52 -23 52
-6 0 -8 4 -4 9 3 5 -2 16 -10 24 -8 9 -15 23 -15 31 0 9 -4 16 -10 16 -5 0
-10 7 -10 15 0 8 -4 15 -10 15 -5 0 -10 6 -10 13 0 7 -9 23 -20 35 -11 12 -20
26 -20 32 0 5 -5 10 -12 10 -6 0 -8 3 -5 6 4 4 -3 15 -15 25 -11 11 -17 19
-13 19 4 0 -2 8 -13 19 -12 10 -22 24 -22 30 0 7 -4 9 -10 6 -5 -3 -10 0 -10
7 0 16 -174 188 -190 188 -6 0 -8 5 -5 10 3 6 0 10 -8 10 -8 0 -18 7 -21 16
-4 9 -9 14 -13 11 -3 -4 -13 2 -23 13 -9 10 -23 20 -31 22 -8 2 -20 11 -27 21
-7 9 -20 17 -28 17 -8 0 -14 3 -14 8 0 4 -23 18 -50 31 -28 14 -50 29 -50 34
0 5 -7 7 -15 3 -8 -3 -15 -2 -15 2 0 5 -19 16 -42 27 -24 10 -61 26 -83 35
-46 20 -72 30 -81 29 -4 0 -11 5 -15 13 -7 11 -9 10 -9 -1 0 -12 -3 -12 -17 1
-16 12 -72 30 -140 42 -12 3 -31 10 -42 16 -16 8 -21 8 -21 -1 0 -7 -8 -5 -20
6 -11 10 -20 13 -20 7 0 -8 -8 -8 -27 -1 -16 5 -46 11 -68 13 -22 2 -40 5 -40
6 0 2 -9 4 -20 5 -11 2 -42 6 -70 10 -27 4 -69 8 -93 10 -23 1 -45 5 -48 8 -3
3 -12 3 -19 1 -7 -3 -16 0 -20 5 -3 6 -12 8 -18 4 -18 -11 -81 -10 -89 2 -5 6
-8 7 -8 0z"/>
<path d="M1477 2494 c-7 -7 -44 -11 -125 -15 -59 -3 -69 -10 -48 -32 8 -8 13
-17 10 -20 -4 -3 3 -16 15 -28 11 -12 18 -26 15 -31 -3 -4 -1 -8 3 -8 5 0 22
-27 38 -60 17 -33 33 -60 38 -60 4 0 7 -7 7 -15 0 -8 5 -15 10 -15 5 0 9 -3 8
-7 -3 -13 35 -83 45 -83 5 0 7 -6 4 -14 -3 -8 -3 -16 1 -18 4 -2 18 -16 32
-32 14 -16 19 -26 13 -22 -7 4 -13 4 -13 1 0 -4 6 -13 13 -20 28 -33 37 -45
32 -45 -3 0 5 -17 19 -37 14 -20 23 -40 20 -45 -3 -4 -1 -8 4 -8 5 0 15 -13
22 -30 7 -16 16 -30 21 -30 5 0 9 -7 9 -16 0 -9 8 -23 18 -31 10 -9 11 -11 2
-7 -11 6 -10 2 3 -13 9 -11 17 -27 17 -37 0 -9 4 -15 9 -11 5 3 15 -11 21 -30
6 -19 16 -35 21 -35 5 0 8 -3 8 -7 -4 -23 2 -43 11 -38 6 3 10 -5 10 -19 0
-13 6 -27 13 -29 7 -3 8 -6 1 -6 -6 -1 -9 -12 -7 -25 3 -13 -1 -27 -8 -31 -8
-6 -10 -4 -5 6 4 8 -1 4 -10 -8 -9 -13 -22 -23 -29 -23 -6 0 -20 -9 -30 -20
-10 -11 -22 -17 -26 -14 -5 3 -9 0 -9 -5 0 -6 -5 -11 -11 -11 -6 0 -17 -7 -26
-15 -8 -8 -19 -12 -25 -9 -7 4 -8 2 -4 -4 4 -7 1 -12 -8 -12 -9 0 -16 -5 -16
-12 0 -6 -3 -9 -6 -5 -4 3 -12 1 -20 -6 -33 -30 -42 -35 -48 -30 -3 4 -6 1 -6
-6 0 -7 -4 -9 -10 -6 -5 3 -10 2 -10 -2 0 -5 -20 -19 -45 -33 -25 -14 -45 -28
-45 -33 0 -4 -5 -5 -10 -2 -6 3 -13 -1 -16 -9 -3 -9 -12 -16 -20 -16 -8 0 -23
-9 -34 -20 -11 -11 -23 -21 -27 -21 -30 -5 -96 -49 -74 -49 7 0 9 -5 5 -12 -4
-7 -3 -8 5 -4 6 4 18 2 26 -4 8 -7 15 -9 15 -4 0 5 6 2 13 -6 12 -15 30 -22
55 -23 6 0 12 -4 12 -9 0 -5 5 -6 10 -3 6 3 10 1 10 -4 0 -6 3 -10 8 -10 4 1
23 -4 42 -12 19 -7 38 -12 43 -11 4 1 7 -3 7 -9 0 -5 5 -7 10 -4 6 3 10 1 10
-5 0 -6 5 -8 10 -5 6 3 10 2 10 -2 0 -5 10 -9 22 -10 11 -1 25 -8 29 -15 5 -7
9 -9 9 -4 0 5 6 3 13 -3 8 -6 17 -8 20 -4 4 3 7 1 7 -5 0 -7 6 -12 14 -12 7 0
26 -7 42 -14 15 -8 31 -13 36 -10 4 3 8 0 8 -5 0 -6 9 -11 20 -11 11 0 20 -5
20 -11 0 -6 7 -9 15 -5 8 3 19 -2 24 -12 6 -9 11 -14 11 -10 0 4 19 -1 42 -12
23 -10 46 -16 50 -14 4 3 8 0 8 -5 0 -6 9 -11 20 -11 11 0 20 -4 20 -10 0 -5
11 -10 25 -10 14 0 25 -5 25 -11 0 -6 7 -8 15 -5 9 3 18 -1 21 -9 4 -8 10 -12
15 -9 5 3 9 1 9 -4 0 -6 10 -8 22 -4 16 4 19 2 13 -8 -6 -10 -4 -12 8 -7 10 3
17 3 17 -2 0 -5 11 -12 25 -15 14 -4 55 -20 91 -36 35 -17 71 -30 80 -30 8 0
22 -7 31 -15 8 -8 19 -13 24 -10 5 4 9 1 9 -4 0 -6 8 -11 18 -11 10 0 22 -3
26 -8 4 -4 11 -7 14 -8 4 0 23 -8 42 -16 19 -9 38 -14 42 -12 5 3 8 1 8 -5 0
-5 10 -13 23 -16 22 -7 57 -21 112 -45 17 -8 32 -14 35 -15 3 -1 19 -7 35 -14
41 -18 68 -28 80 -31 6 -2 30 -14 54 -28 24 -13 40 -19 36 -12 -5 8 0 7 14 -2
12 -7 21 -16 21 -20 0 -4 6 -5 14 -2 8 3 17 0 21 -5 3 -6 11 -9 16 -6 5 4 9 1
9 -5 0 -6 5 -8 10 -5 6 3 10 1 10 -5 0 -7 7 -10 15 -6 8 3 15 0 15 -6 0 -6 3
-8 6 -5 4 3 16 0 28 -8 11 -8 28 -15 38 -15 10 0 18 -5 18 -11 0 -5 5 -7 10
-4 6 3 10 2 10 -4 0 -5 8 -8 17 -7 10 2 24 -3 31 -11 8 -7 18 -11 23 -8 5 4 9
1 9 -4 0 -6 9 -11 20 -11 11 0 20 4 20 8 0 5 18 18 40 31 22 12 43 29 48 37 5
9 12 15 15 15 20 -3 28 0 23 8 -3 5 8 14 24 21 16 7 27 16 24 21 -3 5 -1 9 5
9 7 0 7 8 1 24 -5 13 -6 27 -3 30 4 3 0 6 -7 6 -7 0 -11 3 -7 6 3 3 1 18 -5
33 -6 14 -11 33 -13 41 -6 40 -18 81 -26 86 -4 2 -6 11 -2 19 3 8 1 15 -4 15
-7 0 -13 22 -16 68 0 6 -5 12 -10 12 -5 0 -7 7 -3 15 3 8 -1 21 -9 28 -9 9
-10 18 -4 24 6 6 5 14 -5 22 -8 7 -12 19 -9 27 3 8 1 14 -4 14 -5 0 -10 15
-11 33 -2 17 -7 33 -12 35 -5 2 -6 10 -3 18 3 8 -1 14 -8 14 -11 0 -11 3 1 10
12 8 12 10 1 10 -8 0 -11 3 -8 7 4 3 3 11 -2 17 -6 6 -12 23 -14 36 -2 14 -7
33 -11 42 -4 9 -5 22 -1 28 3 5 1 10 -5 10 -7 0 -10 6 -7 12 2 7 -3 22 -12 32
-13 16 -13 18 -1 11 12 -7 13 -6 3 6 -11 13 -23 55 -25 87 -1 6 -6 12 -11 12
-5 0 -7 7 -4 15 4 8 2 17 -4 21 -6 3 -8 12 -5 20 3 7 0 16 -5 20 -6 3 -9 15
-6 25 3 10 0 22 -5 26 -7 4 -8 1 -3 -8 5 -8 5 -11 0 -7 -7 7 -13 35 -18 90 -1
9 -5 14 -10 11 -5 -3 -7 3 -6 13 2 11 -2 29 -9 42 -7 12 -10 22 -8 22 3 0 -1
18 -9 40 -8 22 -12 40 -8 40 3 0 0 6 -6 13 -6 8 -8 17 -4 20 3 4 2 7 -3 7 -5
0 -11 8 -12 18 -3 34 -8 57 -14 67 -4 9 -13 36 -24 80 -15 61 -30 111 -34 115
-5 5 -8 16 -13 48 -1 9 -6 23 -10 30 -5 6 -6 12 -2 12 3 0 -1 15 -9 34 -8 19
-12 37 -8 40 3 3 1 6 -5 6 -6 0 -9 9 -6 20 3 11 1 20 -4 20 -5 0 -10 12 -11
26 -1 15 -7 33 -13 40 -6 8 -9 14 -5 14 3 0 -1 16 -9 36 -18 43 -18 47 -4 38
6 -3 3 5 -6 20 -10 14 -14 26 -10 26 4 0 2 6 -4 14 -6 7 -12 25 -13 40 -1 14
-6 26 -11 26 -4 0 -5 5 -1 11 7 12 -135 7 -155 -5 -6 -4 -11 -2 -11 4 0 6 -5
8 -10 5 -6 -4 -23 -9 -38 -11 -22 -4 -73 -52 -64 -61 1 -2 -6 -12 -15 -22 -27
-29 -36 -42 -62 -83 -12 -21 -27 -38 -32 -38 -6 0 -8 -4 -5 -8 3 -5 -3 -18
-12 -28 -10 -10 -27 -34 -37 -51 -11 -18 -23 -33 -28 -33 -4 0 -6 -4 -3 -9 3
-5 -1 -12 -9 -15 -8 -3 -14 -9 -13 -13 2 -5 -3 -15 -9 -23 -46 -55 -64 -80
-56 -80 4 0 2 -4 -6 -9 -10 -7 -27 0 -57 22 -23 18 -52 39 -64 47 -12 8 -29
21 -36 28 -8 7 -14 10 -14 5 0 -4 -5 0 -11 10 -5 9 -14 17 -19 17 -6 0 -21 9
-34 21 -13 12 -27 21 -30 20 -4 -1 -16 8 -29 19 -12 12 -47 39 -77 60 -30 22
-60 44 -67 50 -7 5 -17 10 -22 10 -6 0 -15 9 -21 20 -6 11 -16 20 -23 20 -7 0
-23 9 -35 20 -12 11 -25 20 -29 20 -5 0 -15 9 -23 19 -7 11 -17 18 -22 15 -4
-3 -11 2 -14 10 -3 9 -12 16 -20 16 -8 0 -14 5 -14 11 0 5 -4 8 -9 5 -5 -4
-11 -1 -13 5 -4 13 -78 21 -78 9 0 -9 -20 -8 -36 3 -6 3 -14 4 -17 1z"/>
<path d="M0 1015 c0 -25 5 -45 11 -45 5 0 7 5 4 10 -3 6 1 10 10 10 9 0 13 4
10 10 -3 5 3 17 14 27 25 21 18 33 -20 33 -28 0 -29 -2 -29 -45z"/>
</g>
</svg>
