<svg xmlns="http://www.w3.org/2000/svg" version="1.1" xmlns:xlink="http://www.w3.org/1999/xlink" xmlns:svgjs="http://svgjs.com/svgjs" width="373px" height="373px"><svg xmlns="http://www.w3.org/2000/svg" version="1.1" width="373px" height="373px" style="shape-rendering:geometricPrecision; text-rendering:geometricPrecision; image-rendering:optimizeQuality; fill-rule:evenodd; clip-rule:evenodd" xmlns:xlink="http://www.w3.org/1999/xlink">
<g><path style="opacity:0.937" fill="#252951" d="M 203.5,17.5 C 207.984,17.4258 212.317,18.0925 216.5,19.5C 221.072,21.6225 225.739,23.6225 230.5,25.5C 225.233,24.7682 220.233,23.2682 215.5,21C 207.578,19.3681 199.578,18.5348 191.5,18.5C 177.654,17.2692 163.654,17.2692 149.5,18.5C 150.952,17.6981 152.618,17.1981 154.5,17C 170.847,16.2972 187.181,16.4638 203.5,17.5 Z"></path></g>
<g><path style="opacity:1" fill="#333763" d="M 191.5,18.5 C 186.821,18.3342 182.155,18.5008 177.5,19C 183.755,20.1884 189.422,22.5218 194.5,26C 190.955,26.7171 187.455,26.5504 184,25.5C 181.72,25.8942 181.22,26.8942 182.5,28.5C 174.16,28.3336 165.827,28.5003 157.5,29C 154.149,29.0572 151.149,29.8906 148.5,31.5C 146.901,31.2322 145.568,31.5655 144.5,32.5C 143.167,32.5 141.833,32.5 140.5,32.5C 135.835,33.0569 131.502,34.3902 127.5,36.5C 119.323,38.9173 111.323,41.9173 103.5,45.5C 96.8243,48.166 90.8243,51.8327 85.5,56.5C 58.9668,73.5335 39.4668,96.5335 27,125.5C 26.0555,129.494 25.2221,133.494 24.5,137.5C 23.6745,141.136 23.0078,144.803 22.5,148.5C 21.8333,150.5 21.1667,152.5 20.5,154.5C 15.9354,172.58 15.4354,190.914 19,209.5C 19.2784,210.416 19.7784,211.082 20.5,211.5C 20.8333,211.5 21.1667,211.5 21.5,211.5C 21.6657,215.846 21.499,220.179 21,224.5C 20.2305,220.002 18.0638,219.336 14.5,222.5C 13.8281,221.051 13.1614,219.718 12.5,218.5C 11.8025,214.044 10.6358,209.71 9,205.5C 8.30988,188.487 8.47655,171.487 9.5,154.5C 11.3113,146.92 12.6446,139.254 13.5,131.5C 13.5,131.167 13.5,130.833 13.5,130.5C 15.6545,128.383 16.6545,125.716 16.5,122.5C 17.8846,121.426 19.0513,120.093 20,118.5C 24.2137,107.065 30.2137,96.7316 38,87.5C 38.5046,85.4817 39.0046,83.4817 39.5,81.5C 42.8716,80.2947 45.0383,77.9614 46,74.5C 52.1124,68.5574 57.9457,62.5574 63.5,56.5C 65.7488,55.9202 67.4154,54.5869 68.5,52.5C 81.9075,44.1003 95.5742,36.1003 109.5,28.5C 114.554,27.3165 119.554,25.8165 124.5,24C 125.056,23.6174 125.389,23.1174 125.5,22.5C 133.54,21.4911 141.54,20.1578 149.5,18.5C 163.654,17.2692 177.654,17.2692 191.5,18.5 Z"></path></g>
<g><path style="opacity:0.545" fill="#111126" d="M 197.5,15.5 C 199.5,16.1667 201.5,16.8333 203.5,17.5C 187.181,16.4638 170.847,16.2972 154.5,17C 152.618,17.1981 150.952,17.6981 149.5,18.5C 141.54,20.1578 133.54,21.4911 125.5,22.5C 148.884,14.7717 172.884,12.4384 197.5,15.5 Z"></path></g>
<g><path style="opacity:1" fill="#363b6a" d="M 191.5,18.5 C 199.578,18.5348 207.578,19.3681 215.5,21C 220.233,23.2682 225.233,24.7682 230.5,25.5C 231.833,25.5 233.167,25.5 234.5,25.5C 238.044,26.7895 241.377,28.4561 244.5,30.5C 239.035,28.384 233.368,27.0507 227.5,26.5C 227.351,27.552 227.517,28.552 228,29.5C 228.667,28.1667 229.333,28.1667 230,29.5C 230.494,31.1341 230.66,32.8008 230.5,34.5C 232.942,34.3537 233.609,35.187 232.5,37C 233.899,37.5946 235.232,37.4279 236.5,36.5C 238.115,37.154 239.782,37.654 241.5,38C 242.312,39.8228 243.312,41.6561 244.5,43.5C 242.442,42.0669 240.108,41.4003 237.5,41.5C 236.508,41.6716 235.842,41.3382 235.5,40.5C 230.738,37.3373 225.405,35.6706 219.5,35.5C 210.095,31.231 200.095,29.231 189.5,29.5C 188.5,29.5 187.5,29.5 186.5,29.5C 185.432,28.5655 184.099,28.2322 182.5,28.5C 181.22,26.8942 181.72,25.8942 184,25.5C 187.455,26.5504 190.955,26.7171 194.5,26C 189.422,22.5218 183.755,20.1884 177.5,19C 182.155,18.5008 186.821,18.3342 191.5,18.5 Z"></path></g>
<g><path style="opacity:0.356" fill="#00000c" d="M 197.5,15.5 C 212.151,16.6646 226.485,18.9979 240.5,22.5C 232.396,22.1568 224.396,21.1568 216.5,19.5C 212.317,18.0925 207.984,17.4258 203.5,17.5C 201.5,16.8333 199.5,16.1667 197.5,15.5 Z"></path></g>
<g><path style="opacity:0.361" fill="#0f0e21" d="M 125.5,22.5 C 125.389,23.1174 125.056,23.6174 124.5,24C 119.554,25.8165 114.554,27.3165 109.5,28.5C 114.382,25.5361 119.715,23.5361 125.5,22.5 Z"></path></g>
<g><path style="opacity:0.142" fill="#00000c" d="M 240.5,22.5 C 249.303,23.9911 257.637,26.6577 265.5,30.5C 256.961,28.2081 248.627,25.5414 240.5,22.5 Z"></path></g>
<g><path style="opacity:1" fill="#222545" d="M 182.5,28.5 C 184.099,28.2322 185.432,28.5655 186.5,29.5C 173.756,29.0739 161.089,29.7405 148.5,31.5C 151.149,29.8906 154.149,29.0572 157.5,29C 165.827,28.5003 174.16,28.3336 182.5,28.5 Z"></path></g>
<g><path style="opacity:1" fill="#0d0b30" d="M 234.5,25.5 C 266.985,31.4077 294.985,45.741 318.5,68.5C 322.238,72.0685 325.404,76.0685 328,80.5C 334.969,95.4381 339.303,111.105 341,127.5C 340.444,125.405 339.944,125.238 339.5,127C 341.018,130.717 342.018,134.551 342.5,138.5C 342.167,138.5 341.833,138.5 341.5,138.5C 337.898,125.291 332.564,112.958 325.5,101.5C 306.463,68.8048 279.463,45.1381 244.5,30.5C 241.377,28.4561 238.044,26.7895 234.5,25.5 Z"></path></g>
<g><path style="opacity:0.445" fill="#020105" d="M 186.5,29.5 C 187.5,29.5 188.5,29.5 189.5,29.5C 199.354,31.6042 209.354,33.6042 219.5,35.5C 219.611,36.1174 219.944,36.6174 220.5,37C 225.671,37.5946 230.671,38.7612 235.5,40.5C 235.842,41.3382 236.508,41.6716 237.5,41.5C 239.934,42.9852 242.267,44.6519 244.5,46.5C 216.169,33.5052 187.169,32.0052 157.5,42C 125.506,52.8051 99.5064,71.6384 79.5,98.5C 78.6971,97.5768 78.5304,96.5768 79,95.5C 103.838,61.6512 137.005,40.8179 178.5,33C 172.49,33.4999 166.49,33.3332 160.5,32.5C 154.135,33.5767 147.802,34.41 141.5,35C 142.571,34.1482 143.571,33.3149 144.5,32.5C 145.568,31.5655 146.901,31.2322 148.5,31.5C 161.089,29.7405 173.756,29.0739 186.5,29.5 Z"></path></g>
<g><path style="opacity:0.989" fill="#030209" d="M 140.5,32.5 C 141.833,32.5 143.167,32.5 144.5,32.5C 143.571,33.3149 142.571,34.1482 141.5,35C 147.802,34.41 154.135,33.5767 160.5,32.5C 166.49,33.3332 172.49,33.4999 178.5,33C 137.005,40.8179 103.838,61.6512 79,95.5C 78.5304,96.5768 78.6971,97.5768 79.5,98.5C 46.9433,152.256 47.61,205.589 81.5,258.5C 79.629,258.141 78.129,257.141 77,255.5C 74.5859,252.185 72.9192,248.518 72,244.5C 71.0754,243.953 70.2421,243.287 69.5,242.5C 65.3035,234.751 61.9701,226.751 59.5,218.5C 50.5213,186.758 51.688,155.425 63,124.5C 63.6667,123.167 64.6667,122.167 66,121.5C 69.0325,114.112 72.0325,106.779 75,99.5C 79.7259,92.949 84.2259,86.2823 88.5,79.5C 88.1667,78.8333 87.8333,78.1667 87.5,77.5C 91.4227,70.2468 95.256,62.9135 99,55.5C 100.558,53.6411 102.391,52.1411 104.5,51C 101.28,51.6786 98.1134,52.8453 95,54.5C 94.5,54.3333 94,54.1667 93.5,54C 94.3805,53.2917 95.0472,52.4584 95.5,51.5C 98.4495,49.8847 101.116,47.8847 103.5,45.5C 111.323,41.9173 119.323,38.9173 127.5,36.5C 132.176,35.9392 136.509,34.6059 140.5,32.5 Z"></path></g>
<g><path style="opacity:0.973" fill="#212444" d="M 189.5,29.5 C 200.095,29.231 210.095,31.231 219.5,35.5C 209.354,33.6042 199.354,31.6042 189.5,29.5 Z"></path></g>
<g><path style="opacity:1" fill="#191b35" d="M 140.5,32.5 C 136.509,34.6059 132.176,35.9392 127.5,36.5C 131.502,34.3902 135.835,33.0569 140.5,32.5 Z"></path></g>
<g><path style="opacity:0.957" fill="#212546" d="M 219.5,35.5 C 225.405,35.6706 230.738,37.3373 235.5,40.5C 230.671,38.7612 225.671,37.5946 220.5,37C 219.944,36.6174 219.611,36.1174 219.5,35.5 Z"></path></g>
<g><path style="opacity:0.059" fill="#010110" d="M 272.5,33.5 C 294.218,42.2233 312.551,55.5566 327.5,73.5C 320.124,67.2695 312.79,60.7695 305.5,54C 294.718,46.6198 283.718,39.7865 272.5,33.5 Z"></path></g>
<g><path style="opacity:0.055" fill="#030310" d="M 244.5,46.5 C 247.754,46.7936 250.421,48.127 252.5,50.5C 249.515,49.6743 246.849,48.341 244.5,46.5 Z"></path></g>
<g><path style="opacity:1" fill="#212343" d="M 103.5,45.5 C 101.116,47.8847 98.4495,49.8847 95.5,51.5C 92.1667,53.1667 88.8333,54.8333 85.5,56.5C 90.8243,51.8327 96.8243,48.166 103.5,45.5 Z"></path></g>
<g><path style="opacity:0.612" fill="#15162b" d="M 109.5,28.5 C 95.5742,36.1003 81.9075,44.1003 68.5,52.5C 80.63,42.0716 94.2967,34.0716 109.5,28.5 Z"></path></g>
<g><path style="opacity:0.769" fill="#202444" d="M 237.5,41.5 C 240.108,41.4003 242.442,42.0669 244.5,43.5C 249.021,45.0388 253.021,47.3721 256.5,50.5C 255.167,50.5 253.833,50.5 252.5,50.5C 250.421,48.127 247.754,46.7936 244.5,46.5C 242.267,44.6519 239.934,42.9852 237.5,41.5 Z"></path></g>
<g><path style="opacity:0.989" fill="#050310" d="M 59.5,218.5 C 58.8826,218.389 58.3826,218.056 58,217.5C 54.9219,206.365 52.9219,195.032 52,183.5C 51.0716,179.702 49.5716,176.202 47.5,173C 48.8085,168.864 48.8085,164.698 47.5,160.5C 47.8882,154.448 49.2215,148.614 51.5,143C 51.3552,142.228 51.0219,141.561 50.5,141C 52.0436,135.49 54.0436,130.156 56.5,125C 55.1667,122 55.1667,119 56.5,116C 56.0946,115.055 55.428,114.388 54.5,114C 55.2272,111.876 55.8938,109.709 56.5,107.5C 54.6618,98.6887 56.3284,90.3554 61.5,82.5C 61.3333,82.1667 61.1667,81.8333 61,81.5C 59.6487,83.019 58.1487,84.3523 56.5,85.5C 55.8933,85.3764 55.56,85.0431 55.5,84.5C 58.2281,80.2628 61.5615,76.4294 65.5,73C 72.3562,67.6357 79.0229,62.1357 85.5,56.5C 88.8333,54.8333 92.1667,53.1667 95.5,51.5C 95.0472,52.4584 94.3805,53.2917 93.5,54C 94,54.1667 94.5,54.3333 95,54.5C 98.1134,52.8453 101.28,51.6786 104.5,51C 102.391,52.1411 100.558,53.6411 99,55.5C 95.256,62.9135 91.4227,70.2468 87.5,77.5C 87.8333,78.1667 88.1667,78.8333 88.5,79.5C 84.2259,86.2823 79.7259,92.949 75,99.5C 72.0325,106.779 69.0325,114.112 66,121.5C 64.6667,122.167 63.6667,123.167 63,124.5C 51.688,155.425 50.5213,186.758 59.5,218.5 Z"></path></g>
<g><path style="opacity:0.082" fill="#080915" d="M 252.5,50.5 C 253.833,50.5 255.167,50.5 256.5,50.5C 259.729,52.9416 262.729,55.6082 265.5,58.5C 260.991,56.0809 256.658,53.4143 252.5,50.5 Z"></path></g>
<g><path style="opacity:0.247" fill="#0d0b1d" d="M 68.5,52.5 C 67.4154,54.5869 65.7488,55.9202 63.5,56.5C 64.5846,54.4131 66.2512,53.0798 68.5,52.5 Z"></path></g>
<g><path style="opacity:0.804" fill="#24294a" d="M 256.5,50.5 C 263.172,52.173 268.505,55.8397 272.5,61.5C 270.313,60.242 267.98,59.242 265.5,58.5C 262.729,55.6082 259.729,52.9416 256.5,50.5 Z"></path></g>
<g><path style="opacity:0.02" fill="#05050e" d="M 265.5,58.5 C 267.98,59.242 270.313,60.242 272.5,61.5C 273.11,62.391 273.443,63.391 273.5,64.5C 270.527,62.8532 267.86,60.8532 265.5,58.5 Z"></path></g>
<g><path style="opacity:0.988" fill="#272c50" d="M 272.5,61.5 C 273.873,61.3433 275.207,61.51 276.5,62C 278.722,64.9562 281.055,67.7895 283.5,70.5C 280.429,68.1023 277.095,66.1023 273.5,64.5C 273.443,63.391 273.11,62.391 272.5,61.5 Z"></path></g>
<g><path style="opacity:1" fill="#3a4271" d="M 244.5,30.5 C 279.463,45.1381 306.463,68.8048 325.5,101.5C 325.343,102.873 325.51,104.207 326,105.5C 329.44,110.029 331.44,115.029 332,120.5C 329.643,117.909 326.809,116.242 323.5,115.5C 323.5,114.167 323.5,112.833 323.5,111.5C 321.856,111.286 320.356,111.62 319,112.5C 317.312,111.675 317.145,110.675 318.5,109.5C 314.799,105.138 311.132,100.804 307.5,96.5C 306.833,96.1667 306.167,95.8333 305.5,95.5C 304.277,92.7261 302.777,90.0594 301,87.5C 300.184,86.1772 299.017,85.5106 297.5,85.5C 294.217,79.2166 289.55,74.2166 283.5,70.5C 281.055,67.7895 278.722,64.9562 276.5,62C 275.207,61.51 273.873,61.3433 272.5,61.5C 268.505,55.8397 263.172,52.173 256.5,50.5C 253.021,47.3721 249.021,45.0388 244.5,43.5C 243.312,41.6561 242.312,39.8228 241.5,38C 239.782,37.654 238.115,37.154 236.5,36.5C 235.232,37.4279 233.899,37.5946 232.5,37C 233.609,35.187 232.942,34.3537 230.5,34.5C 230.66,32.8008 230.494,31.1341 230,29.5C 229.333,28.1667 228.667,28.1667 228,29.5C 227.517,28.552 227.351,27.552 227.5,26.5C 233.368,27.0507 239.035,28.384 244.5,30.5 Z"></path></g>
<g><path style="opacity:0.208" fill="#111122" d="M 63.5,56.5 C 57.9457,62.5574 52.1124,68.5574 46,74.5C 45.0383,77.9614 42.8716,80.2947 39.5,81.5C 46.1256,71.8738 54.1256,63.5405 63.5,56.5 Z"></path></g>
<g><path style="opacity:0.776" fill="#252a4c" d="M 283.5,70.5 C 289.55,74.2166 294.217,79.2166 297.5,85.5C 292.861,80.5261 288.195,75.5261 283.5,70.5 Z"></path></g>
<g><path style="opacity:0.035" fill="#09081a" d="M 273.5,64.5 C 277.095,66.1023 280.429,68.1023 283.5,70.5C 288.195,75.5261 292.861,80.5261 297.5,85.5C 299.678,87.8584 301.345,90.5251 302.5,93.5C 293.833,82.8333 284.167,73.1667 273.5,64.5 Z"></path></g>
<g><path style="opacity:1" fill="#060415" d="M 59.5,218.5 C 61.9701,226.751 65.3035,234.751 69.5,242.5C 70.2421,243.287 71.0754,243.953 72,244.5C 72.9192,248.518 74.5859,252.185 77,255.5C 78.129,257.141 79.629,258.141 81.5,258.5C 81.5652,260.696 82.2319,262.696 83.5,264.5C 88.2719,271.141 93.4386,277.474 99,283.5C 108.959,292.788 119.793,300.955 131.5,308C 132.268,310.369 133.435,312.535 135,314.5C 140.889,319.696 147.722,323.196 155.5,325C 177.915,330.325 200.581,332.492 223.5,331.5C 223.013,332.446 222.68,333.446 222.5,334.5C 223.693,337.719 225.026,340.886 226.5,344C 226.022,345.642 225.022,346.809 223.5,347.5C 223.721,344.158 222.887,340.824 221,337.5C 220.506,335.866 220.34,334.199 220.5,332.5C 191.773,335.496 163.773,332.329 136.5,323C 129.93,320.714 123.93,317.381 118.5,313C 110.08,302.907 101.247,293.074 92,283.5C 80.0099,264.256 68.0099,244.922 56,225.5C 45.9094,206.224 39.4094,185.724 36.5,164C 36.6016,157.644 36.6016,151.311 36.5,145C 37.5143,140.685 38.5143,136.352 39.5,132C 39.4119,126.182 39.4119,120.349 39.5,114.5C 39.3333,113.5 39.1667,112.5 39,111.5C 38,112.833 37,114.167 36,115.5C 35.5172,114.552 35.3505,113.552 35.5,112.5C 40.2339,101.769 46.9005,92.4359 55.5,84.5C 55.56,85.0431 55.8933,85.3764 56.5,85.5C 58.1487,84.3523 59.6487,83.019 61,81.5C 61.1667,81.8333 61.3333,82.1667 61.5,82.5C 56.3284,90.3554 54.6618,98.6887 56.5,107.5C 55.8938,109.709 55.2272,111.876 54.5,114C 55.428,114.388 56.0946,115.055 56.5,116C 55.1667,119 55.1667,122 56.5,125C 54.0436,130.156 52.0436,135.49 50.5,141C 51.0219,141.561 51.3552,142.228 51.5,143C 49.2215,148.614 47.8882,154.448 47.5,160.5C 48.8085,164.698 48.8085,168.864 47.5,173C 49.5716,176.202 51.0716,179.702 52,183.5C 52.9219,195.032 54.9219,206.365 58,217.5C 58.3826,218.056 58.8826,218.389 59.5,218.5 Z"></path></g>
<g><path style="opacity:0.741" fill="#222748" d="M 297.5,85.5 C 299.017,85.5106 300.184,86.1772 301,87.5C 302.777,90.0594 304.277,92.7261 305.5,95.5C 304.5,94.8333 303.5,94.1667 302.5,93.5C 301.345,90.5251 299.678,87.8584 297.5,85.5 Z"></path></g>
<g><path style="opacity:0.999" fill="#0c0928" d="M 216.5,19.5 C 224.396,21.1568 232.396,22.1568 240.5,22.5C 248.627,25.5414 256.961,28.2081 265.5,30.5C 268.241,30.7073 270.574,31.7073 272.5,33.5C 283.718,39.7865 294.718,46.6198 305.5,54C 312.79,60.7695 320.124,67.2695 327.5,73.5C 328.167,73.5 328.5,73.8333 328.5,74.5C 332.313,80.1092 336.147,85.7759 340,91.5C 341.809,94.7779 343.309,98.1112 344.5,101.5C 347.2,106.575 349.534,111.908 351.5,117.5C 350.389,118.611 349.722,119.945 349.5,121.5C 349.506,131.832 349.84,142.332 350.5,153C 348.13,158.219 348.13,163.552 350.5,169C 350.332,176.736 350.332,184.569 350.5,192.5C 350.687,202.842 349.354,212.842 346.5,222.5C 346.5,220.5 346.5,218.5 346.5,216.5C 348.649,199.731 348.982,183.064 347.5,166.5C 347.665,163.15 347.498,159.817 347,156.5C 345.776,150.4 344.276,144.4 342.5,138.5C 342.018,134.551 341.018,130.717 339.5,127C 339.944,125.238 340.444,125.405 341,127.5C 339.303,111.105 334.969,95.4381 328,80.5C 325.404,76.0685 322.238,72.0685 318.5,68.5C 294.985,45.741 266.985,31.4077 234.5,25.5C 233.167,25.5 231.833,25.5 230.5,25.5C 225.739,23.6225 221.072,21.6225 216.5,19.5 Z"></path></g>
<g><path style="opacity:1" fill="#212344" d="M 85.5,56.5 C 79.0229,62.1357 72.3562,67.6357 65.5,73C 61.5615,76.4294 58.2281,80.2628 55.5,84.5C 46.9005,92.4359 40.2339,101.769 35.5,112.5C 33.291,117.268 30.791,121.934 28,126.5C 27.885,130.614 26.7183,134.281 24.5,137.5C 25.2221,133.494 26.0555,129.494 27,125.5C 39.4668,96.5335 58.9668,73.5335 85.5,56.5 Z"></path></g>
<g><path style="opacity:0.116" fill="#01000f" d="M 328.5,74.5 C 340.598,87.6771 349.931,102.677 356.5,119.5C 352.892,113.228 348.892,107.228 344.5,101.5C 343.309,98.1112 341.809,94.7779 340,91.5C 336.147,85.7759 332.313,80.1092 328.5,74.5 Z"></path></g>
<g><path style="opacity:0.149" fill="#121428" d="M 302.5,93.5 C 303.5,94.1667 304.5,94.8333 305.5,95.5C 306.167,95.8333 306.833,96.1667 307.5,96.5C 309.539,101.566 312.373,106.233 316,110.5C 317.411,112.65 318.245,114.984 318.5,117.5C 317.833,117.167 317.167,116.833 316.5,116.5C 316.539,113.911 315.539,111.911 313.5,110.5C 309.587,105.012 305.921,99.3451 302.5,93.5 Z"></path></g>
<g><path style="opacity:0.518" fill="#16192f" d="M 39.5,81.5 C 39.0046,83.4817 38.5046,85.4817 38,87.5C 30.2137,96.7316 24.2137,107.065 20,118.5C 19.0513,120.093 17.8846,121.426 16.5,122.5C 18.4941,115.508 21.3274,108.841 25,102.5C 29.3062,95.0459 34.1396,88.0459 39.5,81.5 Z"></path></g>
<g><path style="opacity:1" fill="#08061b" d="M 223.5,347.5 C 222.395,348.6 221.062,349.267 219.5,349.5C 220.186,344.119 219.52,338.786 217.5,333.5C 179.421,338.58 143.421,332.413 109.5,315C 107.382,313.951 105.716,312.451 104.5,310.5C 94.4661,299.395 84.2994,288.395 74,277.5C 59.7803,254.861 47.447,231.194 37,206.5C 34.6659,196.492 32.3326,186.492 30,176.5C 28.9249,164.343 28.0915,152.343 27.5,140.5C 25.5714,145.871 23.9047,151.204 22.5,156.5C 22.5,153.833 22.5,151.167 22.5,148.5C 23.0078,144.803 23.6745,141.136 24.5,137.5C 26.7183,134.281 27.885,130.614 28,126.5C 30.791,121.934 33.291,117.268 35.5,112.5C 35.3505,113.552 35.5172,114.552 36,115.5C 37,114.167 38,112.833 39,111.5C 39.1667,112.5 39.3333,113.5 39.5,114.5C 39.4119,120.349 39.4119,126.182 39.5,132C 38.5143,136.352 37.5143,140.685 36.5,145C 36.6016,151.311 36.6016,157.644 36.5,164C 39.4094,185.724 45.9094,206.224 56,225.5C 68.0099,244.922 80.0099,264.256 92,283.5C 101.247,293.074 110.08,302.907 118.5,313C 123.93,317.381 129.93,320.714 136.5,323C 163.773,332.329 191.773,335.496 220.5,332.5C 220.34,334.199 220.506,335.866 221,337.5C 222.887,340.824 223.721,344.158 223.5,347.5 Z"></path></g>
<g><path style="opacity:0.039" fill="#040413" d="M 313.5,110.5 C 315.539,111.911 316.539,113.911 316.5,116.5C 314.992,114.819 313.992,112.819 313.5,110.5 Z"></path></g>
<g><path style="opacity:1" fill="#090722" d="M 344.5,101.5 C 348.892,107.228 352.892,113.228 356.5,119.5C 356.311,123.037 356.977,126.37 358.5,129.5C 359.851,137.609 358.851,145.442 355.5,153C 355.957,153.414 356.291,153.914 356.5,154.5C 355.62,162.47 354.787,170.47 354,178.5C 353.259,183.402 352.092,188.068 350.5,192.5C 350.332,184.569 350.332,176.736 350.5,169C 348.13,163.552 348.13,158.219 350.5,153C 349.84,142.332 349.506,131.832 349.5,121.5C 349.722,119.945 350.389,118.611 351.5,117.5C 349.534,111.908 347.2,106.575 344.5,101.5 Z"></path></g>
<g><path style="opacity:0.022" fill="#010105" d="M 316.5,116.5 C 317.167,116.833 317.833,117.167 318.5,117.5C 319.038,119.117 319.371,120.784 319.5,122.5C 317.992,120.819 316.992,118.819 316.5,116.5 Z"></path></g>
<g><path style="opacity:0.079" fill="#000003" d="M -0.5,118.5 C 3.32705,121.265 3.32705,123.932 -0.5,126.5C -0.5,123.833 -0.5,121.167 -0.5,118.5 Z"></path></g>
<g><path style="opacity:0.273" fill="#052102" d="M 160.5,122.5 C 160.833,123.167 161.167,123.833 161.5,124.5C 159.236,123.781 156.903,123.448 154.5,123.5C 147.5,123.5 140.5,123.5 133.5,123.5C 140.323,122.574 147.323,121.907 154.5,121.5C 156.696,121.505 158.696,121.838 160.5,122.5 Z"></path></g>
<g><path style="opacity:0.999" fill="#042705" d="M 260.5,123.5 C 262.607,122.532 264.941,122.198 267.5,122.5C 270.5,122.5 273.5,122.5 276.5,122.5C 284.644,141.408 292.144,160.741 299,180.5C 299.684,181.784 299.517,182.951 298.5,184C 304.611,200.046 310.277,216.212 315.5,232.5C 318.391,238.495 320.725,244.828 322.5,251.5C 318.178,248.408 314.345,244.741 311,240.5C 301.044,201.572 289.044,163.239 275,125.5C 273.556,123.845 271.722,123.178 269.5,123.5C 268.167,123.5 266.833,123.5 265.5,123.5C 263.833,123.5 262.167,123.5 260.5,123.5 Z"></path></g>
<g><path style="opacity:0.987" fill="#032103" d="M 276.5,122.5 C 279.167,122.5 281.833,122.5 284.5,122.5C 295.451,158.966 305.784,195.633 315.5,232.5C 310.277,216.212 304.611,200.046 298.5,184C 299.517,182.951 299.684,181.784 299,180.5C 292.144,160.741 284.644,141.408 276.5,122.5 Z"></path></g>
<g><path style="opacity:0.999" fill="#06440a" d="M 129.5,124.5 C 129.5,124.167 129.5,123.833 129.5,123.5C 130.833,123.5 132.167,123.5 133.5,123.5C 140.5,123.5 147.5,123.5 154.5,123.5C 160.447,126.815 166.113,130.648 171.5,135C 174.484,136.271 177.484,137.438 180.5,138.5C 183.089,139.419 185.089,141.086 186.5,143.5C 188.974,144.32 191.307,145.32 193.5,146.5C 196.099,150.595 199.766,153.262 204.5,154.5C 205.708,157.044 207.708,158.378 210.5,158.5C 211.948,161.264 214.281,162.931 217.5,163.5C 217.238,164.978 217.571,166.311 218.5,167.5C 221.32,169.341 224.32,170.674 227.5,171.5C 225.588,173.657 223.921,175.991 222.5,178.5C 213.752,168.778 203.752,160.445 192.5,153.5C 190.48,149.981 187.48,147.814 183.5,147C 173.922,140.121 164.255,133.121 154.5,126C 152.323,124.798 149.989,124.298 147.5,124.5C 141.5,124.5 135.5,124.5 129.5,124.5 Z"></path></g>
<g><path style="opacity:1" fill="#053407" d="M 270.5,124.5 C 271.496,124.414 272.329,124.748 273,125.5C 286.528,163.455 297.862,201.788 307,240.5C 310.979,246.477 315.646,251.81 321,256.5C 322.572,260.437 324.405,264.104 326.5,267.5C 328.354,272.609 330.354,277.609 332.5,282.5C 332.5,283.833 332.5,285.167 332.5,286.5C 331.13,286.144 330.13,285.31 329.5,284C 328.464,281.226 327.631,278.393 327,275.5C 321.074,266.568 314.74,257.901 308,249.5C 301.245,228.397 295.245,207.064 290,185.5C 283.783,165.019 277.283,144.686 270.5,124.5 Z"></path></g>
<g><path style="opacity:0.247" fill="#0f0f20" d="M 16.5,122.5 C 16.6545,125.716 15.6545,128.383 13.5,130.5C 14.129,127.603 15.129,124.936 16.5,122.5 Z"></path></g>
<g><path style="opacity:0.998" fill="#0b6712" d="M 134.5,125.5 C 136.167,125.5 137.833,125.5 139.5,125.5C 161.969,141.249 183.969,157.749 205.5,175C 208.371,177.703 211.038,180.536 213.5,183.5C 210.996,182.361 208.33,181.694 205.5,181.5C 204.5,180.167 203.5,178.833 202.5,177.5C 199.919,173.357 196.586,169.857 192.5,167C 173.264,152.916 153.931,139.082 134.5,125.5 Z"></path></g>
<g><path style="opacity:1" fill="#0a6010" d="M 139.5,125.5 C 143.127,126.28 146.46,127.78 149.5,130C 173.509,146.511 196.176,164.678 217.5,184.5C 215.901,184.768 214.568,184.434 213.5,183.5C 211.038,180.536 208.371,177.703 205.5,175C 183.969,157.749 161.969,141.249 139.5,125.5 Z"></path></g>
<g><path style="opacity:1" fill="#095a0f" d="M 129.5,124.5 C 135.5,124.5 141.5,124.5 147.5,124.5C 147.5,124.833 147.5,125.167 147.5,125.5C 148.475,127.193 149.808,128.693 151.5,130C 175.852,145.34 198.518,162.84 219.5,182.5C 219.167,183.5 218.5,184.167 217.5,184.5C 196.176,164.678 173.509,146.511 149.5,130C 146.46,127.78 143.127,126.28 139.5,125.5C 137.833,125.5 136.167,125.5 134.5,125.5C 133.167,125.5 131.833,125.5 130.5,125.5C 129.833,125.5 129.5,125.167 129.5,124.5 Z"></path></g>
<g><path style="opacity:1" fill="#09540e" d="M 147.5,125.5 C 173.727,141.136 198.06,159.469 220.5,180.5C 220.167,181.167 219.833,181.833 219.5,182.5C 198.518,162.84 175.852,145.34 151.5,130C 149.808,128.693 148.475,127.193 147.5,125.5 Z"></path></g>
<g><path style="opacity:1" fill="#084e0c" d="M 147.5,125.5 C 147.5,125.167 147.5,124.833 147.5,124.5C 149.989,124.298 152.323,124.798 154.5,126C 164.255,133.121 173.922,140.121 183.5,147C 187.48,147.814 190.48,149.981 192.5,153.5C 203.752,160.445 213.752,168.778 222.5,178.5C 222.167,179.5 221.5,180.167 220.5,180.5C 198.06,159.469 173.727,141.136 147.5,125.5 Z"></path></g>
<g><path style="opacity:1" fill="#042e06" d="M 269.5,124.5 C 269.5,124.167 269.5,123.833 269.5,123.5C 271.722,123.178 273.556,123.845 275,125.5C 289.044,163.239 301.044,201.572 311,240.5C 314.345,244.741 318.178,248.408 322.5,251.5C 324.144,256.744 325.478,262.077 326.5,267.5C 324.405,264.104 322.572,260.437 321,256.5C 315.646,251.81 310.979,246.477 307,240.5C 297.862,201.788 286.528,163.455 273,125.5C 272.329,124.748 271.496,124.414 270.5,124.5C 270.167,124.5 269.833,124.5 269.5,124.5 Z"></path></g>
<g><path style="opacity:1" fill="#11711b" d="M 130.5,125.5 C 131.833,125.5 133.167,125.5 134.5,125.5C 153.931,139.082 173.264,152.916 192.5,167C 196.586,169.857 199.919,173.357 202.5,177.5C 179.776,161.974 157.109,146.141 134.5,130C 132.959,128.629 131.625,127.129 130.5,125.5 Z"></path></g>
<g><path style="opacity:0.969" fill="#043b08" d="M 154.5,123.5 C 156.903,123.448 159.236,123.781 161.5,124.5C 165.475,128.594 170.141,131.594 175.5,133.5C 176.897,135.379 178.563,137.046 180.5,138.5C 177.484,137.438 174.484,136.271 171.5,135C 166.113,130.648 160.447,126.815 154.5,123.5 Z"></path></g>
<g><path style="opacity:0.999" fill="#2e3460" d="M 307.5,96.5 C 311.132,100.804 314.799,105.138 318.5,109.5C 317.145,110.675 317.312,111.675 319,112.5C 320.356,111.62 321.856,111.286 323.5,111.5C 323.5,112.833 323.5,114.167 323.5,115.5C 326.809,116.242 329.643,117.909 332,120.5C 331.44,115.029 329.44,110.029 326,105.5C 325.51,104.207 325.343,102.873 325.5,101.5C 332.564,112.958 337.898,125.291 341.5,138.5C 342.331,142.476 342.497,146.476 342,150.5C 340.612,149.446 339.112,149.28 337.5,150C 336.646,151.022 335.646,151.855 334.5,152.5C 333.421,148.76 331.754,145.427 329.5,142.5C 327.5,136.004 325,129.671 322,123.5C 321.329,122.748 320.496,122.414 319.5,122.5C 319.371,120.784 319.038,119.117 318.5,117.5C 318.245,114.984 317.411,112.65 316,110.5C 312.373,106.233 309.539,101.566 307.5,96.5 Z"></path></g>
<g><path style="opacity:0.075" fill="#011801" d="M 160.5,122.5 C 165.786,125.788 170.786,129.454 175.5,133.5C 170.141,131.594 165.475,128.594 161.5,124.5C 161.167,123.833 160.833,123.167 160.5,122.5 Z"></path></g>
<g><path style="opacity:0.224" fill="#133520" d="M 129.5,123.5 C 129.5,123.833 129.5,124.167 129.5,124.5C 128.427,125.251 128.26,126.251 129,127.5C 130.286,129.183 131.453,130.849 132.5,132.5C 133.5,135.167 134.5,137.833 135.5,140.5C 132.164,135.802 129.164,130.802 126.5,125.5C 127.005,124.081 128.005,123.415 129.5,123.5 Z"></path></g>
<g><path style="opacity:0.478" fill="#14162b" d="M 319.5,122.5 C 320.496,122.414 321.329,122.748 322,123.5C 325,129.671 327.5,136.004 329.5,142.5C 330.344,146.874 331.344,151.207 332.5,155.5C 332.5,158.167 332.5,160.833 332.5,163.5C 329.606,149.479 325.272,135.812 319.5,122.5 Z"></path></g>
<g><path style="opacity:0.565" fill="#235f3c" d="M 132.5,132.5 C 135.26,135.683 137.26,139.349 138.5,143.5C 137.833,143.5 137.167,143.5 136.5,143.5C 135.89,142.609 135.557,141.609 135.5,140.5C 134.5,137.833 133.5,135.167 132.5,132.5 Z"></path></g>
<g><path style="opacity:1" fill="#2e884c" d="M 259.5,124.5 C 260.167,124.5 260.833,124.5 261.5,124.5C 264.797,134.31 267.463,144.31 269.5,154.5C 269.765,159.469 270.765,164.302 272.5,169C 271.198,170.923 271.365,172.757 273,174.5C 273.333,174.167 273.667,173.833 274,173.5C 275.039,175.901 275.206,178.234 274.5,180.5C 273.194,179.088 272.36,177.421 272,175.5C 269.961,176.978 269.128,178.978 269.5,181.5C 264.453,180.195 263.787,181.195 267.5,184.5C 265.326,185.893 263.493,185.56 262,183.5C 260.509,185.004 258.676,185.837 256.5,186C 258.044,186.29 259.377,186.956 260.5,188C 259.167,189.333 257.833,190.667 256.5,192C 254.888,192.72 253.388,192.554 252,191.5C 251.308,192.025 250.808,192.692 250.5,193.5C 252.135,194.681 253.802,194.681 255.5,193.5C 256.59,194.727 257.924,195.56 259.5,196C 257.782,196.346 256.115,196.846 254.5,197.5C 253.325,196.145 252.325,196.312 251.5,198C 251.833,198.333 252.167,198.667 252.5,199C 250.956,199.29 249.623,199.956 248.5,201C 248.833,201.333 249.167,201.667 249.5,202C 247.608,202.973 245.608,203.64 243.5,204C 244.815,205.395 244.481,206.395 242.5,207C 244.058,207.21 245.391,207.71 246.5,208.5C 246.167,208.5 245.833,208.5 245.5,208.5C 240.919,207.75 236.252,206.75 231.5,205.5C 234.192,202.282 236.525,198.782 238.5,195C 240.9,194.814 243.234,194.314 245.5,193.5C 244.113,193.193 242.446,193.193 240.5,193.5C 240.5,192.5 240.5,191.5 240.5,190.5C 243.14,190.046 245.473,188.879 247.5,187C 245.595,185.185 243.928,183.185 242.5,181C 243.448,180.517 244.448,180.351 245.5,180.5C 245.5,181.5 245.5,182.5 245.5,183.5C 247.722,183.822 249.556,183.155 251,181.5C 252.337,182.765 253.837,183.265 255.5,183C 257.869,181.038 259.202,178.872 259.5,176.5C 251.745,181.116 250.745,179.949 256.5,173C 260.752,172.718 263.752,170.718 265.5,167C 262.35,165.865 259.183,164.699 256,163.5C 255.127,163.735 254.293,164.069 253.5,164.5C 250.295,163.135 246.961,162.135 243.5,161.5C 242.41,159.997 241.243,159.664 240,160.5C 238.015,158.765 238.349,157.432 241,156.5C 241.49,155.207 241.657,153.873 241.5,152.5C 243.754,148.993 245.754,145.327 247.5,141.5C 252.727,136.719 256.727,131.052 259.5,124.5 Z"></path></g>
<g><path style="opacity:0.22" fill="#133f21" d="M 259.5,124.5 C 256.727,131.052 252.727,136.719 247.5,141.5C 250.765,135.299 254.765,129.632 259.5,124.5 Z"></path></g>
<g><path style="opacity:1" fill="#09061e" d="M 104.5,310.5 C 100.37,307.541 96.3696,304.374 92.5,301C 88,295.167 82.8333,290 77,285.5C 62.6263,266.092 50.293,245.425 40,223.5C 37.68,217.211 35.3466,210.878 33,204.5C 29.0978,188.846 25.5978,172.846 22.5,156.5C 23.9047,151.204 25.5714,145.871 27.5,140.5C 28.0915,152.343 28.9249,164.343 30,176.5C 32.3326,186.492 34.6659,196.492 37,206.5C 47.447,231.194 59.7803,254.861 74,277.5C 84.2994,288.395 94.4661,299.395 104.5,310.5 Z"></path></g>
<g><path style="opacity:0.639" fill="#041c02" d="M 175.5,133.5 C 182.064,137.066 188.064,141.399 193.5,146.5C 191.307,145.32 188.974,144.32 186.5,143.5C 185.089,141.086 183.089,139.419 180.5,138.5C 178.563,137.046 176.897,135.379 175.5,133.5 Z"></path></g>
<g><path style="opacity:0.999" fill="#08051b" d="M 358.5,129.5 C 361.727,136.399 363.727,143.732 364.5,151.5C 364.305,155.547 364.638,159.547 365.5,163.5C 360.593,178.195 356.759,193.195 354,208.5C 351.487,215.006 348.987,221.506 346.5,228C 347.605,230.12 347.605,232.287 346.5,234.5C 346.167,235.167 345.833,235.833 345.5,236.5C 342.313,237.617 339.313,237.284 336.5,235.5C 338.833,235.5 341.167,235.5 343.5,235.5C 344.879,231.275 345.879,226.942 346.5,222.5C 349.354,212.842 350.687,202.842 350.5,192.5C 352.092,188.068 353.259,183.402 354,178.5C 354.787,170.47 355.62,162.47 356.5,154.5C 356.291,153.914 355.957,153.414 355.5,153C 358.851,145.442 359.851,137.609 358.5,129.5 Z"></path></g>
<g><path style="opacity:0.267" fill="#113a1f" d="M 247.5,141.5 C 245.754,145.327 243.754,148.993 241.5,152.5C 239.167,155.167 236.833,157.833 234.5,160.5C 238.095,153.638 242.428,147.304 247.5,141.5 Z"></path></g>
<g><path style="opacity:0.549" fill="#15162a" d="M 13.5,131.5 C 12.6446,139.254 11.3113,146.92 9.5,154.5C 7.46051,163.404 6.46051,172.571 6.5,182C 6.90646,192.523 7.57313,203.023 8.5,213.5C 2.7103,185.757 4.37697,158.424 13.5,131.5 Z"></path></g>
<g><path style="opacity:0.204" fill="#153821" d="M 136.5,143.5 C 137.167,143.5 137.833,143.5 138.5,143.5C 140.294,147.619 142.627,151.286 145.5,154.5C 145.833,156.5 146.167,158.5 146.5,160.5C 142.929,155.033 139.596,149.367 136.5,143.5 Z"></path></g>
<g><path style="opacity:0.169" fill="#021b01" d="M 193.5,146.5 C 197.732,148.4 201.399,151.067 204.5,154.5C 199.766,153.262 196.099,150.595 193.5,146.5 Z"></path></g>
<g><path style="opacity:1" fill="#09560d" d="M 265.5,127.5 C 277.343,160.384 287.01,194.05 294.5,228.5C 283.866,195.246 274.199,161.579 265.5,127.5 Z"></path></g>
<g><path style="opacity:0.137" fill="#001200" d="M 204.5,154.5 C 206.853,155.34 208.853,156.674 210.5,158.5C 207.708,158.378 205.708,157.044 204.5,154.5 Z"></path></g>
<g><path style="opacity:1" fill="#338454" d="M 129.5,124.5 C 129.5,125.167 129.833,125.5 130.5,125.5C 131.625,127.129 132.959,128.629 134.5,130C 157.109,146.141 179.776,161.974 202.5,177.5C 203.5,178.833 204.5,180.167 205.5,181.5C 207.782,184.608 206.782,185.275 202.5,183.5C 201.093,186.485 199.093,188.985 196.5,191C 197.938,191.219 199.271,191.719 200.5,192.5C 199.092,193.243 197.759,194.077 196.5,195C 198.405,195.826 198.739,196.993 197.5,198.5C 195.907,196.34 194.24,196.173 192.5,198C 193.5,198.833 194.5,199.667 195.5,200.5C 192.752,201.644 190.919,200.644 190,197.5C 187.632,200.259 188.132,201.925 191.5,202.5C 192.869,205.131 192.202,205.798 189.5,204.5C 189.167,205.167 188.833,205.833 188.5,206.5C 187.815,203.636 186.149,202.136 183.5,202C 186.478,205.881 185.478,208.048 180.5,208.5C 180.238,209.978 180.571,211.311 181.5,212.5C 182.687,211.106 183.354,211.273 183.5,213C 182.922,214.811 182.422,216.645 182,218.5C 179.798,212.494 176.631,207.161 172.5,202.5C 169.81,199.127 167.477,195.46 165.5,191.5C 164.68,187.698 163.014,184.364 160.5,181.5C 156.598,175.37 152.931,169.037 149.5,162.5C 148.721,159.455 147.387,156.789 145.5,154.5C 142.627,151.286 140.294,147.619 138.5,143.5C 137.26,139.349 135.26,135.683 132.5,132.5C 131.453,130.849 130.286,129.183 129,127.5C 128.26,126.251 128.427,125.251 129.5,124.5 Z"></path></g>
<g><path style="opacity:1" fill="#0a0722" d="M 22.5,148.5 C 22.5,151.167 22.5,153.833 22.5,156.5C 25.5978,172.846 29.0978,188.846 33,204.5C 35.3466,210.878 37.68,217.211 40,223.5C 50.293,245.425 62.6263,266.092 77,285.5C 82.8333,290 88,295.167 92.5,301C 96.3696,304.374 100.37,307.541 104.5,310.5C 105.716,312.451 107.382,313.951 109.5,315C 143.421,332.413 179.421,338.58 217.5,333.5C 219.52,338.786 220.186,344.119 219.5,349.5C 218.5,349.5 217.5,349.5 216.5,349.5C 217.391,348.739 218.058,347.739 218.5,346.5C 217.512,343.218 216.846,339.885 216.5,336.5C 140.271,345.279 82.4373,316.946 43,251.5C 37.6239,242.046 32.6239,232.38 28,222.5C 27.8446,224.856 27.8446,227.189 28,229.5C 26.4685,225.238 25.1351,220.905 24,216.5C 23.6174,215.944 23.1174,215.611 22.5,215.5C 22.7678,213.901 22.4345,212.568 21.5,211.5C 21.1667,211.5 20.8333,211.5 20.5,211.5C 19.3386,201.539 18.6719,191.539 18.5,181.5C 18.478,172.427 19.1446,163.427 20.5,154.5C 21.1667,152.5 21.8333,150.5 22.5,148.5 Z"></path></g>
<g><path style="opacity:0.467" fill="#215839" d="M 145.5,154.5 C 147.387,156.789 148.721,159.455 149.5,162.5C 148.833,162.5 148.167,162.5 147.5,162.5C 146.662,162.158 146.328,161.492 146.5,160.5C 146.167,158.5 145.833,156.5 145.5,154.5 Z"></path></g>
<g><path style="opacity:1" fill="#2e854d" d="M 241.5,152.5 C 241.657,153.873 241.49,155.207 241,156.5C 238.349,157.432 238.015,158.765 240,160.5C 241.243,159.664 242.41,159.997 243.5,161.5C 246.961,162.135 250.295,163.135 253.5,164.5C 254.293,164.069 255.127,163.735 256,163.5C 259.183,164.699 262.35,165.865 265.5,167C 263.752,170.718 260.752,172.718 256.5,173C 250.745,179.949 251.745,181.116 259.5,176.5C 259.202,178.872 257.869,181.038 255.5,183C 253.837,183.265 252.337,182.765 251,181.5C 249.556,183.155 247.722,183.822 245.5,183.5C 245.5,182.5 245.5,181.5 245.5,180.5C 244.448,180.351 243.448,180.517 242.5,181C 243.928,183.185 245.595,185.185 247.5,187C 245.473,188.879 243.14,190.046 240.5,190.5C 240.5,191.5 240.5,192.5 240.5,193.5C 242.446,193.193 244.113,193.193 245.5,193.5C 243.234,194.314 240.9,194.814 238.5,195C 236.525,198.782 234.192,202.282 231.5,205.5C 232.856,208.697 231.689,210.697 228,211.5C 226.301,211.613 225.134,210.947 224.5,209.5C 224.389,208.883 224.056,208.383 223.5,208C 220.833,207.667 218.167,207.333 215.5,207C 213.924,206.56 212.59,205.727 211.5,204.5C 208.137,206.51 204.97,206.51 202,204.5C 201.586,204.957 201.086,205.291 200.5,205.5C 197.686,203.895 194.686,202.895 191.5,202.5C 188.132,201.925 187.632,200.259 190,197.5C 190.919,200.644 192.752,201.644 195.5,200.5C 194.5,199.667 193.5,198.833 192.5,198C 194.24,196.173 195.907,196.34 197.5,198.5C 198.739,196.993 198.405,195.826 196.5,195C 197.759,194.077 199.092,193.243 200.5,192.5C 199.271,191.719 197.938,191.219 196.5,191C 199.093,188.985 201.093,186.485 202.5,183.5C 206.782,185.275 207.782,184.608 205.5,181.5C 208.33,181.694 210.996,182.361 213.5,183.5C 214.568,184.434 215.901,184.768 217.5,184.5C 218.5,184.167 219.167,183.5 219.5,182.5C 219.833,181.833 220.167,181.167 220.5,180.5C 221.5,180.167 222.167,179.5 222.5,178.5C 223.921,175.991 225.588,173.657 227.5,171.5C 227.5,171.167 227.5,170.833 227.5,170.5C 231.324,168.177 233.657,164.844 234.5,160.5C 236.833,157.833 239.167,155.167 241.5,152.5 Z"></path></g>
<g><path style="opacity:1" fill="#07420a" d="M 265.5,123.5 C 266.833,123.5 268.167,123.5 269.5,123.5C 269.5,123.833 269.5,124.167 269.5,124.5C 282.188,163.732 293.355,203.399 303,243.5C 306.213,250.924 310.213,257.924 315,264.5C 316.325,269.829 318.825,274.496 322.5,278.5C 325.036,285.906 328.87,292.572 334,298.5C 335.501,304.336 337.001,310.169 338.5,316C 338,320.07 338.333,324.237 339.5,328.5C 339.392,329.442 339.059,330.275 338.5,331C 339.308,331.308 339.975,331.808 340.5,332.5C 339.873,333.417 339.539,334.417 339.5,335.5C 338.5,336.167 337.5,336.833 336.5,337.5C 334.915,325.738 332.748,314.072 330,302.5C 322.34,287.535 314.673,272.535 307,257.5C 303.301,248.564 300.134,239.564 297.5,230.5C 288.382,195.547 278.382,160.714 267.5,126C 266.944,124.989 266.278,124.156 265.5,123.5 Z"></path></g>
<g><path style="opacity:0.075" fill="#001600" d="M 210.5,158.5 C 213.135,159.811 215.469,161.478 217.5,163.5C 214.281,162.931 211.948,161.264 210.5,158.5 Z"></path></g>
<g><path style="opacity:1" fill="#262954" d="M 341.5,138.5 C 341.833,138.5 342.167,138.5 342.5,138.5C 344.276,144.4 345.776,150.4 347,156.5C 347.498,159.817 347.665,163.15 347.5,166.5C 347.75,171.58 347.25,176.58 346,181.5C 345.667,180.5 345.333,179.5 345,178.5C 342.474,180.328 340.14,182.328 338,184.5C 336.779,174.585 334.945,164.918 332.5,155.5C 331.344,151.207 330.344,146.874 329.5,142.5C 331.754,145.427 333.421,148.76 334.5,152.5C 335.646,151.855 336.646,151.022 337.5,150C 339.112,149.28 340.612,149.446 342,150.5C 342.497,146.476 342.331,142.476 341.5,138.5 Z"></path></g>
<g><path style="opacity:1" fill="#060415" d="M 364.5,151.5 C 365.314,153.631 365.814,155.964 366,158.5C 366.667,167.5 366.667,176.5 366,185.5C 365.333,186.167 364.667,186.833 364,187.5C 360.715,202.792 356.382,217.792 351,232.5C 349.53,233.267 348.03,233.933 346.5,234.5C 347.605,232.287 347.605,230.12 346.5,228C 348.987,221.506 351.487,215.006 354,208.5C 356.759,193.195 360.593,178.195 365.5,163.5C 364.638,159.547 364.305,155.547 364.5,151.5 Z"></path></g>
<g><path style="opacity:0.91" fill="#052904" d="M 217.5,163.5 C 220.135,164.811 222.469,166.478 224.5,168.5C 224.973,169.906 225.973,170.573 227.5,170.5C 227.5,170.833 227.5,171.167 227.5,171.5C 224.32,170.674 221.32,169.341 218.5,167.5C 217.571,166.311 217.238,164.978 217.5,163.5 Z"></path></g>
<g><path style="opacity:0.043" fill="#10311d" d="M 147.5,162.5 C 148.167,162.5 148.833,162.5 149.5,162.5C 152.931,169.037 156.598,175.37 160.5,181.5C 160.629,183.216 160.962,184.883 161.5,186.5C 156.344,178.864 151.677,170.864 147.5,162.5 Z"></path></g>
<g><path style="opacity:0.267" fill="#134324" d="M 234.5,160.5 C 233.657,164.844 231.324,168.177 227.5,170.5C 227.5,170.167 227.5,169.833 227.5,169.5C 229.482,166.19 231.815,163.19 234.5,160.5 Z"></path></g>
<g><path style="opacity:0.004" fill="#000700" d="M 224.5,168.5 C 225.609,168.557 226.609,168.89 227.5,169.5C 227.5,169.833 227.5,170.167 227.5,170.5C 225.973,170.573 224.973,169.906 224.5,168.5 Z"></path></g>
<g><path style="opacity:0.968" fill="#04020f" d="M 356.5,119.5 C 363.286,133.301 367.286,147.968 368.5,163.5C 369.207,183.631 367.04,203.631 362,223.5C 360.045,227.618 357.212,230.952 353.5,233.5C 350.817,234.51 348.151,235.51 345.5,236.5C 345.833,235.833 346.167,235.167 346.5,234.5C 348.03,233.933 349.53,233.267 351,232.5C 356.382,217.792 360.715,202.792 364,187.5C 364.667,186.833 365.333,186.167 366,185.5C 366.667,176.5 366.667,167.5 366,158.5C 365.814,155.964 365.314,153.631 364.5,151.5C 363.727,143.732 361.727,136.399 358.5,129.5C 356.977,126.37 356.311,123.037 356.5,119.5 Z"></path></g>
<g><path style="opacity:1" fill="#2a8545" d="M 269.5,154.5 C 270.117,154.611 270.617,154.944 271,155.5C 272.511,163.018 274.344,170.351 276.5,177.5C 277.296,183.567 278.129,189.567 279,195.5C 278,194.833 277,194.167 276,193.5C 274.301,194.406 272.467,194.739 270.5,194.5C 271.7,201.133 269.2,203.133 263,200.5C 261.605,200.78 260.438,201.447 259.5,202.5C 261.514,204.018 263.514,204.685 265.5,204.5C 264.807,205.518 264.141,206.518 263.5,207.5C 260.075,207.692 256.741,207.692 253.5,207.5C 251.194,207.646 248.861,207.979 246.5,208.5C 245.391,207.71 244.058,207.21 242.5,207C 244.481,206.395 244.815,205.395 243.5,204C 245.608,203.64 247.608,202.973 249.5,202C 249.167,201.667 248.833,201.333 248.5,201C 249.623,199.956 250.956,199.29 252.5,199C 252.167,198.667 251.833,198.333 251.5,198C 252.325,196.312 253.325,196.145 254.5,197.5C 256.115,196.846 257.782,196.346 259.5,196C 257.924,195.56 256.59,194.727 255.5,193.5C 253.802,194.681 252.135,194.681 250.5,193.5C 250.808,192.692 251.308,192.025 252,191.5C 253.388,192.554 254.888,192.72 256.5,192C 257.833,190.667 259.167,189.333 260.5,188C 259.377,186.956 258.044,186.29 256.5,186C 258.676,185.837 260.509,185.004 262,183.5C 263.493,185.56 265.326,185.893 267.5,184.5C 263.787,181.195 264.453,180.195 269.5,181.5C 269.128,178.978 269.961,176.978 272,175.5C 272.36,177.421 273.194,179.088 274.5,180.5C 275.206,178.234 275.039,175.901 274,173.5C 273.667,173.833 273.333,174.167 273,174.5C 271.365,172.757 271.198,170.923 272.5,169C 270.765,164.302 269.765,159.469 269.5,154.5 Z"></path></g>
<g><path style="opacity:0.471" fill="#205535" d="M 160.5,181.5 C 163.014,184.364 164.68,187.698 165.5,191.5C 164.778,190.449 163.778,189.782 162.5,189.5C 161.89,188.609 161.557,187.609 161.5,186.5C 160.962,184.883 160.629,183.216 160.5,181.5 Z"></path></g>
<g><path style="opacity:0.099" fill="#0c0c1e" d="M 332.5,165.5 C 334.25,168.355 335.083,171.689 335,175.5C 335.5,186.161 335.667,196.828 335.5,207.5C 334.678,213.272 333.345,218.939 331.5,224.5C 334.933,204.877 335.266,185.21 332.5,165.5 Z"></path></g>
<g><path style="opacity:0.424" fill="#001100" d="M 332.5,282.5 C 330.354,277.609 328.354,272.609 326.5,267.5C 325.478,262.077 324.144,256.744 322.5,251.5C 320.725,244.828 318.391,238.495 315.5,232.5C 305.784,195.633 295.451,158.966 284.5,122.5C 281.833,122.5 279.167,122.5 276.5,122.5C 273.5,122.5 270.5,122.5 267.5,122.5C 272.332,121.673 277.332,121.007 282.5,120.5C 284.374,120.39 285.874,121.056 287,122.5C 302.483,175.769 317.65,229.103 332.5,282.5 Z"></path></g>
<g><path style="opacity:1" fill="#272a50" d="M 20.5,154.5 C 19.1446,163.427 18.478,172.427 18.5,181.5C 18.6719,191.539 19.3386,201.539 20.5,211.5C 19.7784,211.082 19.2784,210.416 19,209.5C 15.4354,190.914 15.9354,172.58 20.5,154.5 Z"></path></g>
<g><path style="opacity:0.169" fill="#000004" d="M 368.5,163.5 C 371.631,185.988 370.131,208.321 364,230.5C 357.572,234.465 350.738,237.465 343.5,239.5C 338.814,238.775 334.147,237.941 329.5,237C 328.193,235.057 328.193,233.223 329.5,231.5C 329.33,232.822 329.663,233.989 330.5,235C 332.473,235.495 334.473,235.662 336.5,235.5C 339.313,237.284 342.313,237.617 345.5,236.5C 348.151,235.51 350.817,234.51 353.5,233.5C 357.212,230.952 360.045,227.618 362,223.5C 367.04,203.631 369.207,183.631 368.5,163.5 Z"></path></g>
<g><path style="opacity:0.161" fill="#11341e" d="M 162.5,189.5 C 163.778,189.782 164.778,190.449 165.5,191.5C 167.477,195.46 169.81,199.127 172.5,202.5C 173.912,206.321 175.578,209.987 177.5,213.5C 178.657,216.307 178.657,218.974 177.5,221.5C 177.66,219.801 177.494,218.134 177,216.5C 172.154,207.473 167.321,198.473 162.5,189.5 Z"></path></g>
<g><path style="opacity:0.999" fill="#2e7f4d" d="M 191.5,202.5 C 194.686,202.895 197.686,203.895 200.5,205.5C 201.086,205.291 201.586,204.957 202,204.5C 204.97,206.51 208.137,206.51 211.5,204.5C 212.59,205.727 213.924,206.56 215.5,207C 218.167,207.333 220.833,207.667 223.5,208C 224.056,208.383 224.389,208.883 224.5,209.5C 221.894,210.743 221.894,212.076 224.5,213.5C 226.413,214.051 228.413,214.218 230.5,214C 228.566,215.353 226.733,216.853 225,218.5C 224.517,219.448 224.351,220.448 224.5,221.5C 222.549,221.773 221.049,221.107 220,219.5C 217.517,221.26 217.017,223.427 218.5,226C 217.004,226.507 215.837,226.007 215,224.5C 213.176,225.749 213.343,226.915 215.5,228C 211.528,231.356 207.195,233.856 202.5,235.5C 202.244,237.912 203.244,239.579 205.5,240.5C 203.926,241.631 202.259,241.798 200.5,241C 201.609,239.187 200.942,238.354 198.5,238.5C 198.396,241.09 199.063,243.423 200.5,245.5C 200.333,246.167 200.167,246.833 200,247.5C 198.186,243.637 197.02,243.97 196.5,248.5C 195.178,248.67 194.011,248.337 193,247.5C 192.51,248.793 192.343,250.127 192.5,251.5C 189.64,251.084 187.474,252.084 186,254.5C 185.127,254.265 184.293,253.931 183.5,253.5C 181.2,255.781 178.534,257.614 175.5,259C 174.663,260.011 174.33,261.178 174.5,262.5C 172.055,261.688 169.722,260.688 167.5,259.5C 165.983,259.511 164.816,260.177 164,261.5C 161.632,259.726 159.132,258.059 156.5,256.5C 154.602,257.734 152.935,257.401 151.5,255.5C 152.025,254.808 152.692,254.308 153.5,254C 149.868,254.311 146.368,254.478 143,254.5C 141.715,254.05 140.548,253.383 139.5,252.5C 136.439,254.869 133.106,256.369 129.5,257C 135.779,252.656 141.779,248.156 147.5,243.5C 151.122,241.213 154.455,238.547 157.5,235.5C 158.873,235.657 160.207,235.49 161.5,235C 164.483,233.365 167.149,231.532 169.5,229.5C 170.338,229.158 170.672,228.492 170.5,227.5C 178.302,226.587 181.135,222.253 179,214.5C 178.617,213.944 178.117,213.611 177.5,213.5C 175.578,209.987 173.912,206.321 172.5,202.5C 176.631,207.161 179.798,212.494 182,218.5C 182.422,216.645 182.922,214.811 183.5,213C 183.354,211.273 182.687,211.106 181.5,212.5C 180.571,211.311 180.238,209.978 180.5,208.5C 185.478,208.048 186.478,205.881 183.5,202C 186.149,202.136 187.815,203.636 188.5,206.5C 188.833,205.833 189.167,205.167 189.5,204.5C 192.202,205.798 192.869,205.131 191.5,202.5 Z"></path></g>
<g><path style="opacity:1" fill="#2c7f49" d="M 231.5,205.5 C 236.252,206.75 240.919,207.75 245.5,208.5C 244.685,209.837 243.518,210.837 242,211.5C 241.598,212.872 241.098,214.205 240.5,215.5C 238.424,216.1 236.424,216.433 234.5,216.5C 235.833,217.5 237.167,218.5 238.5,219.5C 238.167,219.833 237.833,220.167 237.5,220.5C 236.549,219.674 235.549,219.508 234.5,220C 233.078,223.056 230.411,225.389 226.5,227C 227.357,227.689 228.023,228.522 228.5,229.5C 225.45,232.308 224.45,235.642 225.5,239.5C 223.604,240.466 221.604,240.799 219.5,240.5C 219.649,239.448 219.483,238.448 219,237.5C 217.173,239.24 217.34,240.907 219.5,242.5C 216.243,247.515 214.243,247.181 213.5,241.5C 212.094,243.566 210.76,245.732 209.5,248C 203.676,248.915 203.343,250.249 208.5,252C 209.167,253 209.833,254 210.5,255C 208.533,254.76 206.7,253.927 205,252.5C 202.551,253.944 200.385,255.778 198.5,258C 196.888,258.72 195.388,258.554 194,257.5C 193.536,258.094 193.369,258.761 193.5,259.5C 190.657,260.687 187.657,260.687 184.5,259.5C 182.896,259.939 181.396,260.606 180,261.5C 178.739,261.241 177.739,260.574 177,259.5C 176.148,260.571 175.315,261.571 174.5,262.5C 174.33,261.178 174.663,260.011 175.5,259C 178.534,257.614 181.2,255.781 183.5,253.5C 184.293,253.931 185.127,254.265 186,254.5C 187.474,252.084 189.64,251.084 192.5,251.5C 192.343,250.127 192.51,248.793 193,247.5C 194.011,248.337 195.178,248.67 196.5,248.5C 197.02,243.97 198.186,243.637 200,247.5C 200.167,246.833 200.333,246.167 200.5,245.5C 199.063,243.423 198.396,241.09 198.5,238.5C 200.942,238.354 201.609,239.187 200.5,241C 202.259,241.798 203.926,241.631 205.5,240.5C 203.244,239.579 202.244,237.912 202.5,235.5C 207.195,233.856 211.528,231.356 215.5,228C 213.343,226.915 213.176,225.749 215,224.5C 215.837,226.007 217.004,226.507 218.5,226C 217.017,223.427 217.517,221.26 220,219.5C 221.049,221.107 222.549,221.773 224.5,221.5C 224.351,220.448 224.517,219.448 225,218.5C 226.733,216.853 228.566,215.353 230.5,214C 228.413,214.218 226.413,214.051 224.5,213.5C 221.894,212.076 221.894,210.743 224.5,209.5C 225.134,210.947 226.301,211.613 228,211.5C 231.689,210.697 232.856,208.697 231.5,205.5 Z"></path></g>
<g><path style="opacity:1" fill="#2a7f46" d="M 253.5,207.5 C 253.423,208.75 252.756,209.583 251.5,210C 253.167,210.333 254.833,210.667 256.5,211C 255.359,211.741 255.359,212.575 256.5,213.5C 255.311,214.429 253.978,214.762 252.5,214.5C 252.326,216.861 251.993,219.194 251.5,221.5C 250.5,221.5 249.5,221.5 248.5,221.5C 247.229,224.686 246.229,228.02 245.5,231.5C 243.801,231.34 242.134,231.506 240.5,232C 239.359,232.741 239.359,233.575 240.5,234.5C 238.615,235.197 238.282,236.197 239.5,237.5C 236.912,238.584 234.745,240.251 233,242.5C 231.915,240.343 230.749,240.176 229.5,242C 230.376,243.586 231.376,245.086 232.5,246.5C 231.5,247.167 230.5,247.833 229.5,248.5C 230.025,249.192 230.692,249.692 231.5,250C 228.5,251 225.5,252 222.5,253C 223.624,253.249 224.624,253.749 225.5,254.5C 222.344,257.501 219.677,260.835 217.5,264.5C 216.193,263.847 214.86,263.18 213.5,262.5C 212.859,263.993 211.859,264.993 210.5,265.5C 210.223,262.541 208.89,261.874 206.5,263.5C 205.353,263.182 204.519,262.516 204,261.5C 201.46,262.876 199.46,262.21 198,259.5C 196.586,260.413 195.086,260.413 193.5,259.5C 193.369,258.761 193.536,258.094 194,257.5C 195.388,258.554 196.888,258.72 198.5,258C 200.385,255.778 202.551,253.944 205,252.5C 206.7,253.927 208.533,254.76 210.5,255C 209.833,254 209.167,253 208.5,252C 203.343,250.249 203.676,248.915 209.5,248C 210.76,245.732 212.094,243.566 213.5,241.5C 214.243,247.181 216.243,247.515 219.5,242.5C 217.34,240.907 217.173,239.24 219,237.5C 219.483,238.448 219.649,239.448 219.5,240.5C 221.604,240.799 223.604,240.466 225.5,239.5C 224.45,235.642 225.45,232.308 228.5,229.5C 228.023,228.522 227.357,227.689 226.5,227C 230.411,225.389 233.078,223.056 234.5,220C 235.549,219.508 236.549,219.674 237.5,220.5C 237.833,220.167 238.167,219.833 238.5,219.5C 237.167,218.5 235.833,217.5 234.5,216.5C 236.424,216.433 238.424,216.1 240.5,215.5C 241.098,214.205 241.598,212.872 242,211.5C 243.518,210.837 244.685,209.837 245.5,208.5C 245.833,208.5 246.167,208.5 246.5,208.5C 248.861,207.979 251.194,207.646 253.5,207.5 Z"></path></g>
<g><path style="opacity:1" fill="#278041" d="M 263.5,207.5 C 265.937,207.756 268.271,208.423 270.5,209.5C 273.167,206.833 275.833,206.833 278.5,209.5C 279.478,209.023 280.311,208.357 281,207.5C 282.951,209.137 282.784,210.637 280.5,212C 281.5,212.333 282.5,212.667 283.5,213C 282.09,213.368 281.09,214.201 280.5,215.5C 285.772,215.665 285.772,217.165 280.5,220C 281.517,221.049 281.684,222.216 281,223.5C 278.867,224.418 276.7,224.584 274.5,224C 273.663,225.011 273.33,226.178 273.5,227.5C 271.365,227.147 270.032,227.98 269.5,230C 271.865,232.441 272.031,234.941 270,237.5C 268.933,236.809 267.766,236.309 266.5,236C 267.554,234.612 267.72,233.112 267,231.5C 265.954,233.09 264.787,234.59 263.5,236C 263.957,236.414 264.291,236.914 264.5,237.5C 263.443,239.849 261.943,241.849 260,243.5C 259.383,244.449 259.549,245.282 260.5,246C 259.08,247.53 258.08,249.363 257.5,251.5C 256.549,250.674 255.549,250.508 254.5,251C 251.918,254.321 249.251,257.487 246.5,260.5C 245.167,261.167 244.167,262.167 243.5,263.5C 241.871,261.94 240.704,262.273 240,264.5C 236.532,263.197 233.032,263.197 229.5,264.5C 226.964,261.949 225.298,262.616 224.5,266.5C 222.568,267.52 220.568,267.687 218.5,267C 217.748,266.329 217.414,265.496 217.5,264.5C 219.677,260.835 222.344,257.501 225.5,254.5C 224.624,253.749 223.624,253.249 222.5,253C 225.5,252 228.5,251 231.5,250C 230.692,249.692 230.025,249.192 229.5,248.5C 230.5,247.833 231.5,247.167 232.5,246.5C 231.376,245.086 230.376,243.586 229.5,242C 230.749,240.176 231.915,240.343 233,242.5C 234.745,240.251 236.912,238.584 239.5,237.5C 238.282,236.197 238.615,235.197 240.5,234.5C 239.359,233.575 239.359,232.741 240.5,232C 242.134,231.506 243.801,231.34 245.5,231.5C 246.229,228.02 247.229,224.686 248.5,221.5C 249.5,221.5 250.5,221.5 251.5,221.5C 251.993,219.194 252.326,216.861 252.5,214.5C 253.978,214.762 255.311,214.429 256.5,213.5C 255.359,212.575 255.359,211.741 256.5,211C 254.833,210.667 253.167,210.333 251.5,210C 252.756,209.583 253.423,208.75 253.5,207.5C 256.741,207.692 260.075,207.692 263.5,207.5 Z"></path></g>
<g><path style="opacity:1" fill="#0b6112" d="M 261.5,124.5 C 263.973,124.088 265.306,125.088 265.5,127.5C 274.199,161.579 283.866,195.246 294.5,228.5C 294.963,231.482 295.296,234.482 295.5,237.5C 292.229,230.351 289.562,223.018 287.5,215.5C 283.675,202.776 280.008,190.109 276.5,177.5C 274.344,170.351 272.511,163.018 271,155.5C 270.617,154.944 270.117,154.611 269.5,154.5C 267.463,144.31 264.797,134.31 261.5,124.5 Z"></path></g>
<g><path style="opacity:0.993" fill="#1f2148" d="M 332.5,155.5 C 334.945,164.918 336.779,174.585 338,184.5C 340.14,182.328 342.474,180.328 345,178.5C 345.333,179.5 345.667,180.5 346,181.5C 347.25,176.58 347.75,171.58 347.5,166.5C 348.982,183.064 348.649,199.731 346.5,216.5C 345.542,216.953 344.708,217.619 344,218.5C 343.751,217.376 343.251,216.376 342.5,215.5C 342.167,215.667 341.833,215.833 341.5,216C 342.337,217.011 342.67,218.178 342.5,219.5C 339.685,220.126 337.185,221.46 335,223.5C 335.096,218.191 335.262,212.858 335.5,207.5C 335.667,196.828 335.5,186.161 335,175.5C 335.083,171.689 334.25,168.355 332.5,165.5C 332.5,164.833 332.5,164.167 332.5,163.5C 332.5,160.833 332.5,158.167 332.5,155.5 Z"></path></g>
<g><path style="opacity:0.924" fill="#272a4e" d="M 9.5,154.5 C 8.47655,171.487 8.30988,188.487 9,205.5C 10.6358,209.71 11.8025,214.044 12.5,218.5C 12.6893,222.64 13.3559,226.64 14.5,230.5C 13.9779,228.781 12.9779,227.448 11.5,226.5C 11.5429,223.09 11.0429,219.757 10,216.5C 9.61742,215.944 9.11742,215.611 8.5,215.5C 8.5,214.833 8.5,214.167 8.5,213.5C 7.57313,203.023 6.90646,192.523 6.5,182C 6.46051,172.571 7.46051,163.404 9.5,154.5 Z"></path></g>
<g><path style="opacity:0.997" fill="#1a1b40" d="M 335.5,207.5 C 335.262,212.858 335.096,218.191 335,223.5C 337.185,221.46 339.685,220.126 342.5,219.5C 342.67,218.178 342.337,217.011 341.5,216C 341.833,215.833 342.167,215.667 342.5,215.5C 343.251,216.376 343.751,217.376 344,218.5C 344.708,217.619 345.542,216.953 346.5,216.5C 346.5,218.5 346.5,220.5 346.5,222.5C 345.879,226.942 344.879,231.275 343.5,235.5C 341.167,235.5 338.833,235.5 336.5,235.5C 334.473,235.662 332.473,235.495 330.5,235C 329.663,233.989 329.33,232.822 329.5,231.5C 329.721,228.933 330.388,226.599 331.5,224.5C 333.345,218.939 334.678,213.272 335.5,207.5 Z"></path></g>
<g><path style="opacity:0.18" fill="#0d0e1b" d="M 8.5,215.5 C 9.11742,215.611 9.61742,215.944 10,216.5C 11.0429,219.757 11.5429,223.09 11.5,226.5C 10.0552,223.063 9.05516,219.397 8.5,215.5 Z"></path></g>
<g><path style="opacity:1" fill="#247f3c" d="M 276.5,177.5 C 280.008,190.109 283.675,202.776 287.5,215.5C 287.952,219.163 288.452,222.83 289,226.5C 291.55,231.156 293.05,236.156 293.5,241.5C 291.667,244.29 290.667,243.957 290.5,240.5C 289.178,240.67 288.011,240.337 287,239.5C 286.5,240 286,240.5 285.5,241C 286.624,241.249 287.624,241.749 288.5,242.5C 285.121,243.688 282.287,245.688 280,248.5C 279.825,251.157 279.992,253.824 280.5,256.5C 276.884,257.261 273.55,258.761 270.5,261C 271.381,261.708 272.047,262.542 272.5,263.5C 271.791,264.404 270.791,264.737 269.5,264.5C 268.178,264.33 267.011,264.663 266,265.5C 265.193,261.551 264.693,261.551 264.5,265.5C 262.738,265.357 261.071,265.691 259.5,266.5C 259.089,265.738 258.923,264.738 259,263.5C 256.433,264.27 253.933,265.27 251.5,266.5C 249.176,266.123 248.509,265.123 249.5,263.5C 248.66,262.265 247.66,261.265 246.5,260.5C 249.251,257.487 251.918,254.321 254.5,251C 255.549,250.508 256.549,250.674 257.5,251.5C 258.08,249.363 259.08,247.53 260.5,246C 259.549,245.282 259.383,244.449 260,243.5C 261.943,241.849 263.443,239.849 264.5,237.5C 264.291,236.914 263.957,236.414 263.5,236C 264.787,234.59 265.954,233.09 267,231.5C 267.72,233.112 267.554,234.612 266.5,236C 267.766,236.309 268.933,236.809 270,237.5C 272.031,234.941 271.865,232.441 269.5,230C 270.032,227.98 271.365,227.147 273.5,227.5C 273.33,226.178 273.663,225.011 274.5,224C 276.7,224.584 278.867,224.418 281,223.5C 281.684,222.216 281.517,221.049 280.5,220C 285.772,217.165 285.772,215.665 280.5,215.5C 281.09,214.201 282.09,213.368 283.5,213C 282.5,212.667 281.5,212.333 280.5,212C 282.784,210.637 282.951,209.137 281,207.5C 280.311,208.357 279.478,209.023 278.5,209.5C 275.833,206.833 273.167,206.833 270.5,209.5C 268.271,208.423 265.937,207.756 263.5,207.5C 264.141,206.518 264.807,205.518 265.5,204.5C 263.514,204.685 261.514,204.018 259.5,202.5C 260.438,201.447 261.605,200.78 263,200.5C 269.2,203.133 271.7,201.133 270.5,194.5C 272.467,194.739 274.301,194.406 276,193.5C 277,194.167 278,194.833 279,195.5C 278.129,189.567 277.296,183.567 276.5,177.5 Z"></path></g>
<g><path style="opacity:1" fill="#0c0a29" d="M 22.5,215.5 C 23.1174,215.611 23.6174,215.944 24,216.5C 25.1351,220.905 26.4685,225.238 28,229.5C 27.8446,227.189 27.8446,224.856 28,222.5C 32.6239,232.38 37.6239,242.046 43,251.5C 82.4373,316.946 140.271,345.279 216.5,336.5C 193.437,339.417 170.437,339.084 147.5,335.5C 139.649,334.454 131.982,332.621 124.5,330C 121.001,326.984 117.001,325.15 112.5,324.5C 102.095,319.461 92.0952,313.627 82.5,307C 73.3285,298.661 64.3285,290.161 55.5,281.5C 51.2649,274.427 46.4315,267.76 41,261.5C 40.5283,257.89 39.0283,254.89 36.5,252.5C 34.1686,246.504 31.3353,240.837 28,235.5C 26.1624,228.814 24.329,222.148 22.5,215.5 Z"></path></g>
<g><path style="opacity:0.129" fill="#112615" d="M 177.5,221.5 C 177.5,223.5 176.5,224.5 174.5,224.5C 175.167,223.167 176.167,222.167 177.5,221.5 Z"></path></g>
<g><path style="opacity:0.71" fill="#1c5631" d="M 177.5,213.5 C 178.117,213.611 178.617,213.944 179,214.5C 181.135,222.253 178.302,226.587 170.5,227.5C 171.436,226.026 172.77,225.026 174.5,224.5C 176.5,224.5 177.5,223.5 177.5,221.5C 178.657,218.974 178.657,216.307 177.5,213.5 Z"></path></g>
<g><path style="opacity:0.302" fill="#100f1f" d="M 11.5,226.5 C 12.9779,227.448 13.9779,228.781 14.5,230.5C 15.1667,233.833 15.8333,237.167 16.5,240.5C 14.0649,236.201 12.3982,231.534 11.5,226.5 Z"></path></g>
<g><path style="opacity:1" fill="#2c3057" d="M 21.5,211.5 C 22.4345,212.568 22.7678,213.901 22.5,215.5C 24.329,222.148 26.1624,228.814 28,235.5C 31.3353,240.837 34.1686,246.504 36.5,252.5C 37.5571,255.931 38.5571,259.431 39.5,263C 38.3333,263.5 37.5,264.333 37,265.5C 34.7772,265.105 32.6106,264.772 30.5,264.5C 26.3456,258.178 22.8456,251.512 20,244.5C 19.2411,242.937 18.0744,241.937 16.5,241.5C 16.5,241.167 16.5,240.833 16.5,240.5C 15.8333,237.167 15.1667,233.833 14.5,230.5C 13.3559,226.64 12.6893,222.64 12.5,218.5C 13.1614,219.718 13.8281,221.051 14.5,222.5C 18.0638,219.336 20.2305,220.002 21,224.5C 21.499,220.179 21.6657,215.846 21.5,211.5 Z"></path></g>
<g><path style="opacity:0.161" fill="#10371d" d="M 170.5,227.5 C 170.672,228.492 170.338,229.158 169.5,229.5C 168.167,229.833 166.833,230.167 165.5,230.5C 166.659,228.75 168.326,227.75 170.5,227.5 Z"></path></g>
<g><path style="opacity:1" fill="#07470b" d="M 297.5,230.5 C 300.134,239.564 303.301,248.564 307,257.5C 314.673,272.535 322.34,287.535 330,302.5C 332.748,314.072 334.915,325.738 336.5,337.5C 335.5,338.167 334.5,338.833 333.5,339.5C 331.75,328.755 329.584,318.088 327,307.5C 320.186,291.383 313.186,275.383 306,259.5C 302.048,250.145 299.214,240.478 297.5,230.5 Z"></path></g>
<g><path style="opacity:0.698" fill="#1b5530" d="M 169.5,229.5 C 167.149,231.532 164.483,233.365 161.5,235C 160.207,235.49 158.873,235.657 157.5,235.5C 159.822,233.336 162.489,231.669 165.5,230.5C 166.833,230.167 168.167,229.833 169.5,229.5 Z"></path></g>
<g><path style="opacity:1" fill="#207c35" d="M 287.5,215.5 C 289.562,223.018 292.229,230.351 295.5,237.5C 295.5,239.167 295.5,240.833 295.5,242.5C 297.179,253.342 299.346,264.008 302,274.5C 301.283,273.956 300.783,273.289 300.5,272.5C 299.774,269.821 298.941,267.154 298,264.5C 296.512,266.83 294.679,267.164 292.5,265.5C 290.5,265.5 288.5,265.5 286.5,265.5C 286.688,263.897 286.188,262.563 285,261.5C 281.036,261.916 276.87,262.583 272.5,263.5C 272.047,262.542 271.381,261.708 270.5,261C 273.55,258.761 276.884,257.261 280.5,256.5C 279.992,253.824 279.825,251.157 280,248.5C 282.287,245.688 285.121,243.688 288.5,242.5C 287.624,241.749 286.624,241.249 285.5,241C 286,240.5 286.5,240 287,239.5C 288.011,240.337 289.178,240.67 290.5,240.5C 290.667,243.957 291.667,244.29 293.5,241.5C 293.05,236.156 291.55,231.156 289,226.5C 288.452,222.83 287.952,219.163 287.5,215.5 Z"></path></g>
<g><path style="opacity:0.153" fill="#0e351b" d="M 157.5,235.5 C 154.455,238.547 151.122,241.213 147.5,243.5C 146.167,243.833 144.833,244.167 143.5,244.5C 147.819,241.004 152.485,238.004 157.5,235.5 Z"></path></g>
<g><path style="opacity:1" fill="#063a08" d="M 269.5,124.5 C 269.833,124.5 270.167,124.5 270.5,124.5C 277.283,144.686 283.783,165.019 290,185.5C 295.245,207.064 301.245,228.397 308,249.5C 314.74,257.901 321.074,266.568 327,275.5C 327.631,278.393 328.464,281.226 329.5,284C 330.13,285.31 331.13,286.144 332.5,286.5C 333.54,290.037 334.873,293.37 336.5,296.5C 336.754,301.444 337.754,306.111 339.5,310.5C 339.024,314.378 340.024,317.712 342.5,320.5C 343.011,323.693 343.678,326.859 344.5,330C 344.275,333.118 342.608,334.952 339.5,335.5C 339.539,334.417 339.873,333.417 340.5,332.5C 339.975,331.808 339.308,331.308 338.5,331C 339.059,330.275 339.392,329.442 339.5,328.5C 338.333,324.237 338,320.07 338.5,316C 337.001,310.169 335.501,304.336 334,298.5C 328.87,292.572 325.036,285.906 322.5,278.5C 318.825,274.496 316.325,269.829 315,264.5C 310.213,257.924 306.213,250.924 303,243.5C 293.355,203.399 282.188,163.732 269.5,124.5 Z"></path></g>
<g><path style="opacity:0.459" fill="#164526" d="M 140.5,246.5 C 136.737,249.741 132.737,252.907 128.5,256C 127.207,256.49 125.873,256.657 124.5,256.5C 129.489,252.669 134.822,249.336 140.5,246.5 Z"></path></g>
<g><path style="opacity:1" fill="#2c784a" d="M 147.5,243.5 C 141.779,248.156 135.779,252.656 129.5,257C 133.106,256.369 136.439,254.869 139.5,252.5C 140.548,253.383 141.715,254.05 143,254.5C 146.368,254.478 149.868,254.311 153.5,254C 152.692,254.308 152.025,254.808 151.5,255.5C 152.935,257.401 154.602,257.734 156.5,256.5C 159.132,258.059 161.632,259.726 164,261.5C 164.816,260.177 165.983,259.511 167.5,259.5C 166.209,260.473 166.209,261.473 167.5,262.5C 166.833,262.833 166.167,263.167 165.5,263.5C 163.055,263.055 160.721,263.055 158.5,263.5C 157.281,264.263 156.281,265.263 155.5,266.5C 153.929,265.691 152.262,265.357 150.5,265.5C 149.167,267.833 149.167,270.167 150.5,272.5C 149.833,272.5 149.167,272.5 148.5,272.5C 147.167,272.5 145.833,272.5 144.5,272.5C 143.652,270.907 142.319,269.74 140.5,269C 134.204,266.513 127.871,264.346 121.5,262.5C 121.683,260.012 122.683,258.012 124.5,256.5C 125.873,256.657 127.207,256.49 128.5,256C 132.737,252.907 136.737,249.741 140.5,246.5C 140.973,245.094 141.973,244.427 143.5,244.5C 144.833,244.167 146.167,243.833 147.5,243.5 Z"></path></g>
<g><path style="opacity:0.733" fill="#141528" d="M 16.5,241.5 C 18.0744,241.937 19.2411,242.937 20,244.5C 22.8456,251.512 26.3456,258.178 30.5,264.5C 32.0507,266.913 32.7174,269.579 32.5,272.5C 25.8791,262.927 20.5458,252.594 16.5,241.5 Z"></path></g>
<g><path style="opacity:1" fill="#09550d" d="M 295.5,237.5 C 296.315,238.429 297.148,239.429 298,240.5C 305.355,264.235 313.688,287.569 323,310.5C 325.733,320.263 328.233,330.097 330.5,340C 329.35,341.981 328.016,343.814 326.5,345.5C 326.167,345.5 325.833,345.5 325.5,345.5C 324.122,334.025 321.956,322.692 319,311.5C 313.001,293.82 307.168,276.153 301.5,258.5C 299.96,252.972 297.96,247.639 295.5,242.5C 295.5,240.833 295.5,239.167 295.5,237.5 Z"></path></g>
<g><path style="opacity:1" fill="#2a7a46" d="M 167.5,259.5 C 169.722,260.688 172.055,261.688 174.5,262.5C 175.315,261.571 176.148,260.571 177,259.5C 177.739,260.574 178.739,261.241 180,261.5C 181.396,260.606 182.896,259.939 184.5,259.5C 187.657,260.687 190.657,260.687 193.5,259.5C 195.086,260.413 196.586,260.413 198,259.5C 199.46,262.21 201.46,262.876 204,261.5C 204.519,262.516 205.353,263.182 206.5,263.5C 208.89,261.874 210.223,262.541 210.5,265.5C 208.388,265.602 206.388,266.102 204.5,267C 205.938,267.219 207.271,267.719 208.5,268.5C 207.726,269.711 206.893,269.711 206,268.5C 204.956,269.623 204.29,270.956 204,272.5C 201.601,272.028 199.601,273.028 198,275.5C 195.936,274.409 193.769,274.242 191.5,275C 193.421,275.36 195.088,276.194 196.5,277.5C 195.833,277.833 195.167,278.167 194.5,278.5C 192.49,277.638 190.49,277.138 188.5,277C 188.167,277.333 187.833,277.667 187.5,278C 192.822,280.691 192.489,282.024 186.5,282C 188.654,280.816 188.32,279.65 185.5,278.5C 184.05,279.655 183.05,281.155 182.5,283C 183.923,285.513 186.257,287.679 189.5,289.5C 186.645,288.883 183.978,287.883 181.5,286.5C 177.143,282.824 172.143,280.49 166.5,279.5C 161.414,276.676 156.081,274.343 150.5,272.5C 149.167,270.167 149.167,267.833 150.5,265.5C 152.262,265.357 153.929,265.691 155.5,266.5C 156.281,265.263 157.281,264.263 158.5,263.5C 160.721,263.055 163.055,263.055 165.5,263.5C 166.167,263.167 166.833,262.833 167.5,262.5C 166.209,261.473 166.209,260.473 167.5,259.5 Z"></path></g>
<g><path style="opacity:1" fill="#084e0c" d="M 259.5,124.5 C 259.5,123.833 259.833,123.5 260.5,123.5C 262.167,123.5 263.833,123.5 265.5,123.5C 266.278,124.156 266.944,124.989 267.5,126C 278.382,160.714 288.382,195.547 297.5,230.5C 299.214,240.478 302.048,250.145 306,259.5C 313.186,275.383 320.186,291.383 327,307.5C 329.584,318.088 331.75,328.755 333.5,339.5C 331.786,342.213 329.453,344.213 326.5,345.5C 328.016,343.814 329.35,341.981 330.5,340C 328.233,330.097 325.733,320.263 323,310.5C 313.688,287.569 305.355,264.235 298,240.5C 297.148,239.429 296.315,238.429 295.5,237.5C 295.296,234.482 294.963,231.482 294.5,228.5C 287.01,194.05 277.343,160.384 265.5,127.5C 265.306,125.088 263.973,124.088 261.5,124.5C 260.833,124.5 260.167,124.5 259.5,124.5 Z"></path></g>
<g><path style="opacity:1" fill="#23793b" d="M 246.5,260.5 C 247.66,261.265 248.66,262.265 249.5,263.5C 248.509,265.123 249.176,266.123 251.5,266.5C 253.933,265.27 256.433,264.27 259,263.5C 258.923,264.738 259.089,265.738 259.5,266.5C 261.071,265.691 262.738,265.357 264.5,265.5C 264.693,261.551 265.193,261.551 266,265.5C 267.011,264.663 268.178,264.33 269.5,264.5C 269.804,265.15 270.137,265.817 270.5,266.5C 268.716,267.606 266.882,267.606 265,266.5C 262.201,267.237 262.034,268.07 264.5,269C 262.879,271.166 262.045,273.666 262,276.5C 260.758,275.128 259.258,274.128 257.5,273.5C 257.991,275.321 257.991,277.321 257.5,279.5C 255.877,278.524 254.543,279.024 253.5,281C 253.833,281.333 254.167,281.667 254.5,282C 249.668,281.938 246.002,283.938 243.5,288C 245.645,288.743 245.811,289.576 244,290.5C 242.211,289.591 240.377,289.424 238.5,290C 240.303,290.637 241.636,291.803 242.5,293.5C 239.833,293.5 237.167,293.5 234.5,293.5C 235.945,295.063 237.611,296.396 239.5,297.5C 236.829,298.724 234.496,300.391 232.5,302.5C 230.803,301.636 229.637,300.303 229,298.5C 227.212,300.023 227.045,301.69 228.5,303.5C 224.767,303.13 221.101,302.463 217.5,301.5C 215.91,299.179 213.577,298.179 210.5,298.5C 208.833,297.833 207.167,297.167 205.5,296.5C 205.5,296.167 205.5,295.833 205.5,295.5C 206.96,293.537 208.627,291.704 210.5,290C 211.449,289.383 212.282,289.549 213,290.5C 214.167,288.667 215.333,286.833 216.5,285C 218.587,285.218 220.587,285.051 222.5,284.5C 223.813,282.482 223.147,281.315 220.5,281C 221.563,279.812 222.897,279.312 224.5,279.5C 224.5,280.5 224.5,281.5 224.5,282.5C 228.652,282.369 229.318,280.869 226.5,278C 227.793,277.51 229.127,277.343 230.5,277.5C 230.649,276.448 230.483,275.448 230,274.5C 229.282,275.451 228.449,275.617 227.5,275C 229.25,273.681 231.25,273.181 233.5,273.5C 233.667,276.957 234.667,277.29 236.5,274.5C 233.677,270.301 234.343,269.634 238.5,272.5C 239.167,272.167 239.833,271.833 240.5,271.5C 241.081,268.594 242.081,265.927 243.5,263.5C 244.167,262.167 245.167,261.167 246.5,260.5 Z"></path></g>
<g><path style="opacity:1" fill="#207936" d="M 292.5,265.5 C 288.83,268.855 285.163,272.188 281.5,275.5C 279.05,273.575 276.717,274.075 274.5,277C 275.748,278.959 277.415,280.459 279.5,281.5C 276.164,282.178 274.164,284.178 273.5,287.5C 272.808,286.975 272.308,286.308 272,285.5C 269.985,287.478 270.152,289.312 272.5,291C 270.613,291.163 269.113,290.329 268,288.5C 266.319,290.548 264.819,292.715 263.5,295C 262.833,295.167 262.167,295.333 261.5,295.5C 259.964,294.751 258.631,293.751 257.5,292.5C 256.494,292.938 256.494,293.604 257.5,294.5C 255.994,295.747 254.494,295.747 253,294.5C 253.409,296.225 253.242,297.892 252.5,299.5C 249.708,299.75 246.708,300.25 243.5,301C 243.043,301.414 242.709,301.914 242.5,302.5C 244.833,302.5 247.167,302.5 249.5,302.5C 248.482,303.852 247.149,304.852 245.5,305.5C 246.09,306.799 247.09,307.632 248.5,308C 246.676,310.081 245.009,309.915 243.5,307.5C 242.482,308.193 241.482,308.859 240.5,309.5C 236.358,307.682 232.358,305.682 228.5,303.5C 227.045,301.69 227.212,300.023 229,298.5C 229.637,300.303 230.803,301.636 232.5,302.5C 234.496,300.391 236.829,298.724 239.5,297.5C 237.611,296.396 235.945,295.063 234.5,293.5C 237.167,293.5 239.833,293.5 242.5,293.5C 241.636,291.803 240.303,290.637 238.5,290C 240.377,289.424 242.211,289.591 244,290.5C 245.811,289.576 245.645,288.743 243.5,288C 246.002,283.938 249.668,281.938 254.5,282C 254.167,281.667 253.833,281.333 253.5,281C 254.543,279.024 255.877,278.524 257.5,279.5C 257.991,277.321 257.991,275.321 257.5,273.5C 259.258,274.128 260.758,275.128 262,276.5C 262.045,273.666 262.879,271.166 264.5,269C 262.034,268.07 262.201,267.237 265,266.5C 266.882,267.606 268.716,267.606 270.5,266.5C 270.137,265.817 269.804,265.15 269.5,264.5C 270.791,264.737 271.791,264.404 272.5,263.5C 276.87,262.583 281.036,261.916 285,261.5C 286.188,262.563 286.688,263.897 286.5,265.5C 288.5,265.5 290.5,265.5 292.5,265.5 Z"></path></g>
<g><path style="opacity:1" fill="#277a41" d="M 217.5,264.5 C 217.414,265.496 217.748,266.329 218.5,267C 220.568,267.687 222.568,267.52 224.5,266.5C 225.298,262.616 226.964,261.949 229.5,264.5C 233.032,263.197 236.532,263.197 240,264.5C 240.704,262.273 241.871,261.94 243.5,263.5C 242.081,265.927 241.081,268.594 240.5,271.5C 239.833,271.833 239.167,272.167 238.5,272.5C 234.343,269.634 233.677,270.301 236.5,274.5C 234.667,277.29 233.667,276.957 233.5,273.5C 231.25,273.181 229.25,273.681 227.5,275C 228.449,275.617 229.282,275.451 230,274.5C 230.483,275.448 230.649,276.448 230.5,277.5C 229.127,277.343 227.793,277.51 226.5,278C 229.318,280.869 228.652,282.369 224.5,282.5C 224.5,281.5 224.5,280.5 224.5,279.5C 222.897,279.312 221.563,279.812 220.5,281C 223.147,281.315 223.813,282.482 222.5,284.5C 220.587,285.051 218.587,285.218 216.5,285C 215.333,286.833 214.167,288.667 213,290.5C 212.282,289.549 211.449,289.383 210.5,290C 208.627,291.704 206.96,293.537 205.5,295.5C 200.364,292.93 195.031,290.93 189.5,289.5C 186.257,287.679 183.923,285.513 182.5,283C 183.05,281.155 184.05,279.655 185.5,278.5C 188.32,279.65 188.654,280.816 186.5,282C 192.489,282.024 192.822,280.691 187.5,278C 187.833,277.667 188.167,277.333 188.5,277C 190.49,277.138 192.49,277.638 194.5,278.5C 195.167,278.167 195.833,277.833 196.5,277.5C 195.088,276.194 193.421,275.36 191.5,275C 193.769,274.242 195.936,274.409 198,275.5C 199.601,273.028 201.601,272.028 204,272.5C 204.29,270.956 204.956,269.623 206,268.5C 206.893,269.711 207.726,269.711 208.5,268.5C 207.271,267.719 205.938,267.219 204.5,267C 206.388,266.102 208.388,265.602 210.5,265.5C 211.859,264.993 212.859,263.993 213.5,262.5C 214.86,263.18 216.193,263.847 217.5,264.5 Z"></path></g>
<g><path style="opacity:0.383" fill="#010003" d="M -0.5,264.5 C 1.82051,265.625 4.15384,265.792 6.5,265C 7.05851,265.725 7.39184,266.558 7.5,267.5C 5.81586,272.215 3.1492,276.215 -0.5,279.5C -0.5,274.5 -0.5,269.5 -0.5,264.5 Z"></path></g>
<g><path style="opacity:1" fill="#1d7730" d="M 300.5,272.5 C 298.956,272.703 297.622,273.37 296.5,274.5C 295.522,274.023 294.689,273.357 294,272.5C 293.25,273.126 292.416,273.626 291.5,274C 294.817,275.085 295.151,276.585 292.5,278.5C 291.409,276.985 290.076,276.152 288.5,276C 287.816,277.693 286.816,279.193 285.5,280.5C 286.167,281.167 286.833,281.833 287.5,282.5C 284.679,284.609 281.679,286.442 278.5,288C 285.937,287.235 285.937,288.735 278.5,292.5C 277.281,291.737 276.281,290.737 275.5,289.5C 274.614,290.325 274.281,291.325 274.5,292.5C 272.897,292.312 271.563,292.812 270.5,294C 271.435,296.381 271.768,298.881 271.5,301.5C 268.478,301.428 266.312,302.762 265,305.5C 263.612,304.446 262.112,304.28 260.5,305C 259.449,306.385 258.116,307.385 256.5,308C 258.167,308.333 259.833,308.667 261.5,309C 262.304,310.771 263.471,312.271 265,313.5C 266.143,310.085 267.81,309.751 270,312.5C 270.249,311.376 270.749,310.376 271.5,309.5C 274.811,313.125 278.477,313.459 282.5,310.5C 284.073,310.752 285.406,311.418 286.5,312.5C 286.44,313.043 286.107,313.376 285.5,313.5C 284.38,312.167 283.047,311.667 281.5,312C 279.796,314.237 278.796,316.737 278.5,319.5C 275.09,319.384 273.756,321.05 274.5,324.5C 275.552,324.351 276.552,324.517 277.5,325C 278.591,326.55 279.924,327.717 281.5,328.5C 280.167,328.5 278.833,328.5 277.5,328.5C 272.251,323.52 265.917,320.854 258.5,320.5C 255.232,317.293 251.232,315.627 246.5,315.5C 245.694,314.272 244.694,313.272 243.5,312.5C 242.694,311.272 241.694,310.272 240.5,309.5C 241.482,308.859 242.482,308.193 243.5,307.5C 245.009,309.915 246.676,310.081 248.5,308C 247.09,307.632 246.09,306.799 245.5,305.5C 247.149,304.852 248.482,303.852 249.5,302.5C 247.167,302.5 244.833,302.5 242.5,302.5C 242.709,301.914 243.043,301.414 243.5,301C 246.708,300.25 249.708,299.75 252.5,299.5C 253.242,297.892 253.409,296.225 253,294.5C 254.494,295.747 255.994,295.747 257.5,294.5C 256.494,293.604 256.494,292.938 257.5,292.5C 258.631,293.751 259.964,294.751 261.5,295.5C 262.167,295.333 262.833,295.167 263.5,295C 264.819,292.715 266.319,290.548 268,288.5C 269.113,290.329 270.613,291.163 272.5,291C 270.152,289.312 269.985,287.478 272,285.5C 272.308,286.308 272.808,286.975 273.5,287.5C 274.164,284.178 276.164,282.178 279.5,281.5C 277.415,280.459 275.748,278.959 274.5,277C 276.717,274.075 279.05,273.575 281.5,275.5C 285.163,272.188 288.83,268.855 292.5,265.5C 294.679,267.164 296.512,266.83 298,264.5C 298.941,267.154 299.774,269.821 300.5,272.5 Z"></path></g>
<g><path style="opacity:0.999" fill="#282b50" d="M 36.5,252.5 C 39.0283,254.89 40.5283,257.89 41,261.5C 46.4315,267.76 51.2649,274.427 55.5,281.5C 59.4002,286.908 63.9002,291.908 69,296.5C 69.6667,297.167 69.6667,297.833 69,298.5C 64.6482,295.145 60.6482,291.479 57,287.5C 54.5634,290.149 53.23,289.483 53,285.5C 50.9152,288.144 48.4152,288.811 45.5,287.5C 43.3831,284.338 40.7164,281.671 37.5,279.5C 36.9307,276.281 35.264,273.948 32.5,272.5C 32.7174,269.579 32.0507,266.913 30.5,264.5C 32.6106,264.772 34.7772,265.105 37,265.5C 37.5,264.333 38.3333,263.5 39.5,263C 38.5571,259.431 37.5571,255.931 36.5,252.5 Z"></path></g>
<g><path style="opacity:0.224" fill="#0f351b" d="M 124.5,256.5 C 122.683,258.012 121.683,260.012 121.5,262.5C 127.871,264.346 134.204,266.513 140.5,269C 142.319,269.74 143.652,270.907 144.5,272.5C 136.417,269.637 128.417,266.47 120.5,263C 118.993,262.163 118.493,260.996 119,259.5C 120.488,257.84 122.321,256.84 124.5,256.5 Z"></path></g>
<g><path style="opacity:0.208" fill="#050613" d="M 32.5,272.5 C 35.264,273.948 36.9307,276.281 37.5,279.5C 35.4776,277.469 33.8109,275.135 32.5,272.5 Z"></path></g>
<g><path style="opacity:1" fill="#1c782e" d="M 295.5,242.5 C 297.96,247.639 299.96,252.972 301.5,258.5C 302.977,265.437 304.144,272.437 305,279.5C 307.076,282.893 308.242,286.56 308.5,290.5C 308.397,293.219 308.731,295.885 309.5,298.5C 309.167,299.167 308.833,299.833 308.5,300.5C 307.108,299.395 305.941,298.061 305,296.5C 302.175,297.584 302.008,298.751 304.5,300C 302.561,300.908 301.561,302.408 301.5,304.5C 299.173,304.335 297.007,303.669 295,302.5C 294.508,303.549 294.674,304.549 295.5,305.5C 293.309,306.881 291.976,308.881 291.5,311.5C 289.616,312.278 287.95,312.611 286.5,312.5C 285.406,311.418 284.073,310.752 282.5,310.5C 278.477,313.459 274.811,313.125 271.5,309.5C 270.749,310.376 270.249,311.376 270,312.5C 267.81,309.751 266.143,310.085 265,313.5C 263.471,312.271 262.304,310.771 261.5,309C 259.833,308.667 258.167,308.333 256.5,308C 258.116,307.385 259.449,306.385 260.5,305C 262.112,304.28 263.612,304.446 265,305.5C 266.312,302.762 268.478,301.428 271.5,301.5C 271.768,298.881 271.435,296.381 270.5,294C 271.563,292.812 272.897,292.312 274.5,292.5C 274.281,291.325 274.614,290.325 275.5,289.5C 276.281,290.737 277.281,291.737 278.5,292.5C 285.937,288.735 285.937,287.235 278.5,288C 281.679,286.442 284.679,284.609 287.5,282.5C 286.833,281.833 286.167,281.167 285.5,280.5C 286.816,279.193 287.816,277.693 288.5,276C 290.076,276.152 291.409,276.985 292.5,278.5C 295.151,276.585 294.817,275.085 291.5,274C 292.416,273.626 293.25,273.126 294,272.5C 294.689,273.357 295.522,274.023 296.5,274.5C 297.622,273.37 298.956,272.703 300.5,272.5C 300.783,273.289 301.283,273.956 302,274.5C 299.346,264.008 297.179,253.342 295.5,242.5 Z"></path></g>
<g><path style="opacity:0.259" fill="#0b2c13" d="M 144.5,272.5 C 145.833,272.5 147.167,272.5 148.5,272.5C 151.212,273.628 153.545,275.294 155.5,277.5C 151.503,276.397 147.836,274.731 144.5,272.5 Z"></path></g>
<g><path style="opacity:0.949" fill="#1f6135" d="M 148.5,272.5 C 149.167,272.5 149.833,272.5 150.5,272.5C 156.081,274.343 161.414,276.676 166.5,279.5C 163.167,278.833 159.833,278.167 156.5,277.5C 156.167,277.5 155.833,277.5 155.5,277.5C 153.545,275.294 151.212,273.628 148.5,272.5 Z"></path></g>
<g><path style="opacity:1" fill="#0c5d12" d="M 301.5,258.5 C 307.168,276.153 313.001,293.82 319,311.5C 321.956,322.692 324.122,334.025 325.5,345.5C 323.901,345.768 322.568,345.434 321.5,344.5C 322.376,344.631 323.043,344.298 323.5,343.5C 319.066,325.548 314.066,307.881 308.5,290.5C 308.242,286.56 307.076,282.893 305,279.5C 304.144,272.437 302.977,265.437 301.5,258.5 Z"></path></g>
<g><path style="opacity:0.973" fill="#1e6234" d="M 166.5,279.5 C 172.143,280.49 177.143,282.824 181.5,286.5C 180.167,286.5 178.833,286.5 177.5,286.5C 173.97,283.904 170.303,281.571 166.5,279.5 Z"></path></g>
<g><path style="opacity:0.161" fill="#0b2f15" d="M 156.5,277.5 C 159.833,278.167 163.167,278.833 166.5,279.5C 170.303,281.571 173.97,283.904 177.5,286.5C 170.177,284.065 163.177,281.065 156.5,277.5 Z"></path></g>
<g><path style="opacity:0.19" fill="#001500" d="M 332.5,282.5 C 334.435,286.895 335.769,291.562 336.5,296.5C 334.873,293.37 333.54,290.037 332.5,286.5C 332.5,285.167 332.5,283.833 332.5,282.5 Z"></path></g>
<g><path style="opacity:0.082" fill="#070915" d="M 37.5,279.5 C 40.7164,281.671 43.3831,284.338 45.5,287.5C 46.1667,289.167 46.8333,290.833 47.5,292.5C 43.4078,288.742 40.0745,284.409 37.5,279.5 Z"></path></g>
<g><path style="opacity:0.922" fill="#1b5f2e" d="M 189.5,289.5 C 195.031,290.93 200.364,292.93 205.5,295.5C 205.5,295.833 205.5,296.167 205.5,296.5C 199.758,294.926 194.425,292.593 189.5,289.5 Z"></path></g>
<g><path style="opacity:0.051" fill="#0b3113" d="M 177.5,286.5 C 178.833,286.5 180.167,286.5 181.5,286.5C 183.978,287.883 186.645,288.883 189.5,289.5C 194.425,292.593 199.758,294.926 205.5,296.5C 207.167,297.167 208.833,297.833 210.5,298.5C 211.551,299.222 212.218,300.222 212.5,301.5C 200.649,296.736 188.983,291.736 177.5,286.5 Z"></path></g>
<g><path style="opacity:0.125" fill="#050510" d="M 48.5,293.5 C 50.6373,295.171 52.6373,296.838 54.5,298.5C 58.2332,302.227 61.5665,306.227 64.5,310.5C 58.4405,305.443 53.1072,299.776 48.5,293.5 Z"></path></g>
<g><path style="opacity:0.69" fill="#12142d" d="M 54.5,298.5 C 57.7673,300.427 60.7673,302.761 63.5,305.5C 64.7114,307.95 66.378,309.95 68.5,311.5C 67.8333,311.5 67.1667,311.5 66.5,311.5C 65.8333,311.167 65.1667,310.833 64.5,310.5C 61.5665,306.227 58.2332,302.227 54.5,298.5 Z"></path></g>
<g><path style="opacity:0.999" fill="#24264b" d="M 55.5,281.5 C 64.3285,290.161 73.3285,298.661 82.5,307C 92.0952,313.627 102.095,319.461 112.5,324.5C 112.631,325.239 112.464,325.906 112,326.5C 99.737,320.869 88.0704,314.202 77,306.5C 76.8024,308.911 75.6357,310.577 73.5,311.5C 71.2543,308.761 67.921,306.761 63.5,305.5C 60.7673,302.761 57.7673,300.427 54.5,298.5C 52.6373,296.838 50.6373,295.171 48.5,293.5C 47.8333,293.5 47.5,293.167 47.5,292.5C 46.8333,290.833 46.1667,289.167 45.5,287.5C 48.4152,288.811 50.9152,288.144 53,285.5C 53.23,289.483 54.5634,290.149 57,287.5C 60.6482,291.479 64.6482,295.145 69,298.5C 69.6667,297.833 69.6667,297.167 69,296.5C 63.9002,291.908 59.4002,286.908 55.5,281.5 Z"></path></g>
<g><path style="opacity:0.871" fill="#185c29" d="M 210.5,298.5 C 213.577,298.179 215.91,299.179 217.5,301.5C 216.167,301.5 214.833,301.5 213.5,301.5C 213.167,301.5 212.833,301.5 212.5,301.5C 212.218,300.222 211.551,299.222 210.5,298.5 Z"></path></g>
<g><path style="opacity:0.993" fill="#03020e" d="M 81.5,258.5 C 93.539,274.206 107.539,287.873 123.5,299.5C 135.682,308.659 149.349,315.492 164.5,320C 174.843,322.382 185.01,324.216 195,325.5C 208.471,325.671 221.971,325.171 235.5,324C 236.167,324.333 236.833,324.667 237.5,325C 234.764,326.362 232.431,328.196 230.5,330.5C 232.5,332.833 234.5,335.167 236.5,337.5C 232.932,342.006 228.932,346.006 224.5,349.5C 171.465,361.104 122.465,351.604 77.5,321C 73.641,317.968 69.9743,314.802 66.5,311.5C 67.1667,311.5 67.8333,311.5 68.5,311.5C 77.4148,319.115 87.0815,325.448 97.5,330.5C 108.455,337.596 120.455,342.596 133.5,345.5C 145.041,349.45 157.041,351.617 169.5,352C 178.167,352.667 186.833,352.667 195.5,352C 198.365,351.817 201.031,351.317 203.5,350.5C 207.798,349.8 212.131,349.467 216.5,349.5C 217.5,349.5 218.5,349.5 219.5,349.5C 221.062,349.267 222.395,348.6 223.5,347.5C 225.022,346.809 226.022,345.642 226.5,344C 225.026,340.886 223.693,337.719 222.5,334.5C 222.68,333.446 223.013,332.446 223.5,331.5C 200.581,332.492 177.915,330.325 155.5,325C 147.722,323.196 140.889,319.696 135,314.5C 133.435,312.535 132.268,310.369 131.5,308C 119.793,300.955 108.959,292.788 99,283.5C 93.4386,277.474 88.2719,271.141 83.5,264.5C 82.2319,262.696 81.5652,260.696 81.5,258.5 Z"></path></g>
<g><path style="opacity:0.441" fill="#000002" d="M 123.5,299.5 C 149.27,315.653 177.436,323.653 208,323.5C 219.531,323.117 231.031,322.617 242.5,322C 245.127,326.87 246.293,332.036 246,337.5C 239.182,342.157 232.015,346.157 224.5,349.5C 228.932,346.006 232.932,342.006 236.5,337.5C 234.5,335.167 232.5,332.833 230.5,330.5C 232.431,328.196 234.764,326.362 237.5,325C 236.833,324.667 236.167,324.333 235.5,324C 221.971,325.171 208.471,325.671 195,325.5C 185.01,324.216 174.843,322.382 164.5,320C 149.349,315.492 135.682,308.659 123.5,299.5 Z"></path></g>
<g><path style="opacity:1" fill="#19642b" d="M 217.5,301.5 C 221.101,302.463 224.767,303.13 228.5,303.5C 232.358,305.682 236.358,307.682 240.5,309.5C 241.694,310.272 242.694,311.272 243.5,312.5C 234.559,309.196 225.893,305.529 217.5,301.5 Z"></path></g>
<g><path style="opacity:0.365" fill="#021b01" d="M 336.5,296.5 C 338.924,301.847 340.591,307.513 341.5,313.5C 340.833,312.5 340.167,311.5 339.5,310.5C 337.754,306.111 336.754,301.444 336.5,296.5 Z"></path></g>
<g><path style="opacity:0.153" fill="#092b0f" d="M 213.5,301.5 C 214.833,301.5 216.167,301.5 217.5,301.5C 225.893,305.529 234.559,309.196 243.5,312.5C 244.694,313.272 245.694,314.272 246.5,315.5C 235.097,311.594 224.097,306.927 213.5,301.5 Z"></path></g>
<g><path style="opacity:1" fill="#187527" d="M 308.5,290.5 C 314.066,307.881 319.066,325.548 323.5,343.5C 323.043,344.298 322.376,344.631 321.5,344.5C 318.892,344.6 316.558,343.933 314.5,342.5C 312.165,339.835 309.165,338.502 305.5,338.5C 303.597,338.204 301.93,337.537 300.5,336.5C 295.143,332.488 289.143,329.821 282.5,328.5C 282.167,328.5 281.833,328.5 281.5,328.5C 279.924,327.717 278.591,326.55 277.5,325C 276.552,324.517 275.552,324.351 274.5,324.5C 273.756,321.05 275.09,319.384 278.5,319.5C 278.796,316.737 279.796,314.237 281.5,312C 283.047,311.667 284.38,312.167 285.5,313.5C 286.107,313.376 286.44,313.043 286.5,312.5C 287.95,312.611 289.616,312.278 291.5,311.5C 291.976,308.881 293.309,306.881 295.5,305.5C 294.674,304.549 294.508,303.549 295,302.5C 297.007,303.669 299.173,304.335 301.5,304.5C 301.561,302.408 302.561,300.908 304.5,300C 302.008,298.751 302.175,297.584 305,296.5C 305.941,298.061 307.108,299.395 308.5,300.5C 308.833,299.833 309.167,299.167 309.5,298.5C 308.731,295.885 308.397,293.219 308.5,290.5 Z"></path></g>
<g><path style="opacity:0.055" fill="#062c0d" d="M 246.5,315.5 C 251.232,315.627 255.232,317.293 258.5,320.5C 254.203,319.345 250.203,317.679 246.5,315.5 Z"></path></g>
<g><path style="opacity:0.571" fill="#032703" d="M 339.5,310.5 C 340.167,311.5 340.833,312.5 341.5,313.5C 342.404,314.209 342.737,315.209 342.5,316.5C 342.5,317.833 342.5,319.167 342.5,320.5C 340.024,317.712 339.024,314.378 339.5,310.5 Z"></path></g>
<g><path style="opacity:0.196" fill="#08300d" d="M 258.5,320.5 C 265.917,320.854 272.251,323.52 277.5,328.5C 270.764,326.594 264.431,323.927 258.5,320.5 Z"></path></g>
<g><path style="opacity:1" fill="#1f2043" d="M 63.5,305.5 C 67.921,306.761 71.2543,308.761 73.5,311.5C 75.6357,310.577 76.8024,308.911 77,306.5C 88.0704,314.202 99.737,320.869 112,326.5C 112.464,325.906 112.631,325.239 112.5,324.5C 117.001,325.15 121.001,326.984 124.5,330C 131.982,332.621 139.649,334.454 147.5,335.5C 148.398,336.158 149.398,336.824 150.5,337.5C 149.833,337.833 149.167,338.167 148.5,338.5C 137.33,336.335 126.497,333.335 116,329.5C 115.147,331.125 114.147,331.458 113,330.5C 112.085,331.328 111.419,332.328 111,333.5C 109.423,330.325 107.59,329.991 105.5,332.5C 102.856,331.705 100.189,331.038 97.5,330.5C 87.0815,325.448 77.4148,319.115 68.5,311.5C 66.378,309.95 64.7114,307.95 63.5,305.5 Z"></path></g>
<g><path style="opacity:0.188" fill="#0a280a" d="M 277.5,328.5 C 278.833,328.5 280.167,328.5 281.5,328.5C 281.833,328.5 282.167,328.5 282.5,328.5C 283.167,329.5 283.833,330.5 284.5,331.5C 281.843,331.065 279.509,330.065 277.5,328.5 Z"></path></g>
<g><path style="opacity:0.976" fill="#0f591a" d="M 282.5,328.5 C 289.143,329.821 295.143,332.488 300.5,336.5C 299.167,336.5 297.833,336.5 296.5,336.5C 293.244,333.21 289.244,331.543 284.5,331.5C 283.833,330.5 283.167,329.5 282.5,328.5 Z"></path></g>
<g><path style="opacity:0.373" fill="#031c01" d="M 342.5,316.5 C 345.408,322.142 346.408,328.142 345.5,334.5C 339.306,339.194 332.972,343.694 326.5,348C 324.119,348.738 322.119,348.238 320.5,346.5C 322.415,346.784 324.081,346.451 325.5,345.5C 325.833,345.5 326.167,345.5 326.5,345.5C 329.453,344.213 331.786,342.213 333.5,339.5C 334.5,338.833 335.5,338.167 336.5,337.5C 337.5,336.833 338.5,336.167 339.5,335.5C 342.608,334.952 344.275,333.118 344.5,330C 343.678,326.859 343.011,323.693 342.5,320.5C 342.5,319.167 342.5,317.833 342.5,316.5 Z"></path></g>
<g><path style="opacity:0.149" fill="#072a09" d="M 284.5,331.5 C 289.244,331.543 293.244,333.21 296.5,336.5C 292.203,335.345 288.203,333.679 284.5,331.5 Z"></path></g>
<g><path style="opacity:1" fill="#191a3c" d="M 147.5,335.5 C 170.437,339.084 193.437,339.417 216.5,336.5C 216.846,339.885 217.512,343.218 218.5,346.5C 218.058,347.739 217.391,348.739 216.5,349.5C 212.131,349.467 207.798,349.8 203.5,350.5C 179.886,351.719 156.553,350.052 133.5,345.5C 120.455,342.596 108.455,337.596 97.5,330.5C 100.189,331.038 102.856,331.705 105.5,332.5C 107.59,329.991 109.423,330.325 111,333.5C 111.419,332.328 112.085,331.328 113,330.5C 114.147,331.458 115.147,331.125 116,329.5C 126.497,333.335 137.33,336.335 148.5,338.5C 149.167,338.167 149.833,337.833 150.5,337.5C 149.398,336.824 148.398,336.158 147.5,335.5 Z"></path></g>
<g><path style="opacity:0.859" fill="#0d5617" d="M 305.5,338.5 C 309.165,338.502 312.165,339.835 314.5,342.5C 313.167,342.5 311.833,342.5 310.5,342.5C 309.173,340.818 307.506,339.485 305.5,338.5 Z"></path></g>
<g><path style="opacity:0.161" fill="#082a09" d="M 296.5,336.5 C 297.833,336.5 299.167,336.5 300.5,336.5C 301.93,337.537 303.597,338.204 305.5,338.5C 307.506,339.485 309.173,340.818 310.5,342.5C 305.533,341.012 300.866,339.012 296.5,336.5 Z"></path></g>
<g><path style="opacity:0.224" fill="#07360c" d="M 310.5,342.5 C 311.833,342.5 313.167,342.5 314.5,342.5C 316.558,343.933 318.892,344.6 321.5,344.5C 322.568,345.434 323.901,345.768 325.5,345.5C 324.081,346.451 322.415,346.784 320.5,346.5C 316.884,345.686 313.551,344.352 310.5,342.5 Z"></path></g>
<g><path style="opacity:0.911" fill="#10102a" d="M 133.5,345.5 C 156.553,350.052 179.886,351.719 203.5,350.5C 201.031,351.317 198.365,351.817 195.5,352C 186.833,352.667 178.167,352.667 169.5,352C 157.041,351.617 145.041,349.45 133.5,345.5 Z"></path></g>
</svg><style>@media (prefers-color-scheme: light) { :root { filter: none; } }
</style></svg>